<svg width="17" xmlns="http://www.w3.org/2000/svg" height="25" id="screenshot-d5198585-ca1c-80e1-8007-d435dc5ca9fa" viewBox="0 0 17 25" xmlns:xlink="http://www.w3.org/1999/xlink" fill="none" version="1.1"><g id="shape-d5198585-ca1c-80e1-8007-d435dc5ca9fa"><g class="fills" id="fills-d5198585-ca1c-80e1-8007-d435dc5ca9fa"><path d="M8.496337890625,-0.000091552734375C3.81201171875,-0.000091552734375,-4.547473508864641e-13,3.966705322265625,-4.547473508864641e-13,8.842437744140625C-4.547473508864641e-13,12.211822509765625,2.0380859375,16.010650634765625,4.01416015625,19.058013916015625C5.990234375,22.106353759765625,7.96435546875,24.379791259765625,7.96435546875,24.379791259765625L8.496337890625,24.999664306640625L9.03515625,24.379791259765625C9.03515625,24.379791259765625,11.009765625,22.106353759765625,12.98583984375,19.058013916015625C14.9619140625,16.010650634765625,17,12.211822509765625,17,8.842437744140625C17,3.966705322265625,13.1806640625,-0.000091552734375,8.496337890625,-0.000091552734375ZM8.496337890625,1.497711181640625C12.4013671875,1.497711181640625,15.56005859375,4.777984619140625,15.56005859375,8.842437744140625C15.56005859375,11.545074462890625,13.70751953125,15.265777587890625,11.794189453125,18.216217041015625C10.1484375,20.756011962890625,8.92431640625,22.146636962890625,8.496337890625,22.652984619140625C8.067138671875,22.145172119140625,6.85009765625,20.753570556640625,5.20556640625,18.216217041015625C3.292724609375,15.265777587890625,1.439453125,11.545074462890625,1.439453125,8.842437744140625C1.439453125,4.777984619140625,4.591796875,1.497711181640625,8.496337890625,1.497711181640625ZM8.496337890625,5.203765869140625C6.57275390625,5.203765869140625,5,6.840972900390625,5,8.842437744140625C5,10.844879150390625,6.57275390625,12.488189697265625,8.496337890625,12.488189697265625C10.419921875,12.488189697265625,12,10.844879150390625,12,8.842437744140625C12,6.840972900390625,10.419921875,5.203765869140625,8.496337890625,5.203765869140625ZM8.496337890625,6.701812744140625C9.6396484375,6.701812744140625,10.56005859375,7.652984619140625,10.56005859375,8.842437744140625C10.56005859375,10.032867431640625,9.6396484375,10.983062744140625,8.496337890625,10.983062744140625C7.35302734375,10.983062744140625,6.439453125,10.032867431640625,6.439453125,8.842437744140625C6.439453125,7.652984619140625,7.35302734375,6.701812744140625,8.496337890625,6.701812744140625Z" style="baseline-shift: baseline; display: inline; overflow: visible; vector-effect: none; stop-color: rgb(0, 0, 0); fill: rgb(153, 153, 153);"/></g></g></svg>
