<svg width="4.923" xmlns="http://www.w3.org/2000/svg" height="20" id="screenshot-f62b77d5-3a9d-80c5-8007-85efda543ba5" viewBox="509 -1696 4.923 20" xmlns:xlink="http://www.w3.org/1999/xlink" fill="none" version="1.1"><g id="shape-f62b77d5-3a9d-80c5-8007-85efda543ba5"><g class="fills" id="fills-f62b77d5-3a9d-80c5-8007-85efda543ba5"><path d="M511.4615478515625,-1691.0001220703125C512.8216552734375,-1691.0001220703125,513.9230346679688,-1692.1181640625,513.9230346679688,-1693.5C513.9230346679688,-1694.8819580078125,512.8216552734375,-1696,511.4615478515625,-1696C510.1014709472656,-1696,509.00006103515625,-1694.8819580078125,509.00006103515625,-1693.5C509.00006103515625,-1692.1181640625,510.1014709472656,-1691.0001220703125,511.4615478515625,-1691.0001220703125ZM511.4615478515625,-1688.5C510.1014709472656,-1688.5,509.00006103515625,-1687.3819580078125,509.00006103515625,-1686C509.00006103515625,-1684.6181640625,510.1014709472656,-1683.5001220703125,511.4615478515625,-1683.5001220703125C512.8216552734375,-1683.5001220703125,513.9230346679688,-1684.6181640625,513.9230346679688,-1686C513.9230346679688,-1687.3819580078125,512.8216552734375,-1688.5,511.4615478515625,-1688.5ZM511.4615478515625,-1681C510.1014709472656,-1681,509.00006103515625,-1679.8819580078125,509.00006103515625,-1678.5C509.00006103515625,-1677.1181640625,510.1014709472656,-1676.0001220703125,511.4615478515625,-1676.0001220703125C512.8216552734375,-1676.0001220703125,513.9230346679688,-1677.1181640625,513.9230346679688,-1678.5C513.9230346679688,-1679.8819580078125,512.8216552734375,-1681,511.4615478515625,-1681Z" style="fill: rgb(0, 0, 0); fill-opacity: 1;"/></g></g></svg>