<svg width="17.684" xmlns="http://www.w3.org/2000/svg" height="24" id="screenshot-5cd73327-19fd-80a8-8007-c3552e7d645c" viewBox="-683 1044 17.684 24" xmlns:xlink="http://www.w3.org/1999/xlink" fill="none" version="1.1"><g id="shape-5cd73327-19fd-80a8-8007-c3552e7d645c" style="opacity: 1;"><g class="fills" id="fills-5cd73327-19fd-80a8-8007-c3552e7d645c"><path d="M-674.15771484375,1059.15771484375C-672.0670166015625,1059.15771484375,-670.3812255859375,1057.45849609375,-670.3812255859375,1055.368408203125L-670.3682861328125,1047.789794921875C-670.3682861328125,1045.692138671875,-672.0611572265625,1044,-674.15771484375,1044C-676.2484130859375,1044,-677.9471435546875,1045.692138671875,-677.9471435546875,1047.789794921875L-677.9471435546875,1055.368408203125C-677.9471435546875,1057.45849609375,-676.2484130859375,1059.15771484375,-674.15771484375,1059.15771484375L-674.15771484375,1059.15771484375M-675.6734619140625,1047.663330078125C-675.6734619140625,1046.82958984375,-674.9915771484375,1046.147705078125,-674.15771484375,1046.147705078125C-673.3238525390625,1046.147705078125,-672.6422119140625,1046.82958984375,-672.6422119140625,1047.663330078125L-672.6546630859375,1055.494873046875C-672.6546630859375,1056.328125,-673.3304443359375,1057.010009765625,-674.15771484375,1057.010009765625C-674.9915771484375,1057.010009765625,-675.6734619140625,1056.328125,-675.6734619140625,1055.494873046875L-675.6734619140625,1047.663330078125L-675.6734619140625,1047.663330078125M-667.4632568359375,1055.368408203125C-667.4632568359375,1059.15771484375,-670.6654052734375,1061.811279296875,-674.15771484375,1061.811279296875C-677.64404296875,1061.811279296875,-680.852783203125,1059.15771484375,-680.852783203125,1055.368408203125L-683,1055.368408203125C-683,1059.681884765625,-679.5640869140625,1063.243408203125,-675.421142578125,1063.85693359375L-675.421142578125,1068L-672.8948974609375,1068L-672.8948974609375,1063.85693359375C-668.7515869140625,1063.243408203125,-665.3157958984375,1059.681884765625,-665.3157958984375,1055.368408203125L-667.4632568359375,1055.368408203125L-667.4632568359375,1055.368408203125" style="fill: rgb(255, 255, 255); fill-opacity: 1;"/></g></g></svg>