<svg width="23" xmlns="http://www.w3.org/2000/svg" height="23.003" id="screenshot-f62b77d5-3a9d-80c5-8007-85f853a757c9" viewBox="640 -1943.2 23 23.003" xmlns:xlink="http://www.w3.org/1999/xlink" fill="none" version="1.1"><g id="shape-f62b77d5-3a9d-80c5-8007-85f853a757c9"><g class="fills" id="fills-f62b77d5-3a9d-80c5-8007-85f853a757c9"><path d="M651.5009765625,-1943.199951171875C650.4486083984375,-1943.2001953125,649.4010620117188,-1943.05615234375,648.3878173828125,-1942.771728515625C649.56494140625,-1942.062744140625,650.6765747070312,-1941.2520751953125,651.712646484375,-1940.3492431640625C653.0895385742188,-1941.1292724609375,654.5394897460938,-1941.770263671875,656.042236328125,-1942.2647705078125C654.6074829101562,-1942.881591796875,653.0625610351562,-1943.19970703125,651.5009765625,-1943.199951171875L651.5009765625,-1943.199951171875M646.3348388671875,-1941.974609375C644.5592651367188,-1941.0819091796875,643.04541015625,-1939.74462890625,641.9404296875,-1938.0927734375C642.8222045898438,-1936.7744140625,643.8792724609375,-1935.58203125,645.0823364257812,-1934.547607421875C646.5070190429688,-1936.433837890625,648.2337646484375,-1938.071044921875,650.1920166015625,-1939.395263671875C648.9996948242188,-1940.3876953125,647.7072143554688,-1941.252685546875,646.3348388671875,-1941.974609375L646.3348388671875,-1941.974609375M658.1035766601562,-1941.114013671875C656.3282470703125,-1940.6416015625,654.6122436523438,-1939.972412109375,652.9857177734375,-1939.116943359375C655.5250244140625,-1936.459716796875,657.3480834960938,-1933.201416015625,658.2862548828125,-1929.64697265625C658.3126220703125,-1929.544921875,658.340087890625,-1929.4373779296875,658.366455078125,-1929.3294677734375C659.8679809570312,-1929.340576171875,661.3646240234375,-1929.4891357421875,662.8379516601562,-1929.77685546875C662.9454345703125,-1930.41162109375,663.0000610351562,-1931.054931640625,663.0000610351562,-1931.69873046875C662.9998168945312,-1935.4476318359375,661.1725463867188,-1938.96142578125,658.1036987304688,-1941.114013671875L658.1035766601562,-1941.114013671875M651.485595703125,-1938.2142333984375C650.6168823242188,-1937.646484375,649.7952270507812,-1937.010986328125,649.0282592773438,-1936.3125C648.08447265625,-1935.446533203125,647.2220458984375,-1934.4964599609375,646.4510498046875,-1933.473876953125C647.8594360351562,-1932.4036865234375,649.38232421875,-1931.4931640625,650.9922485351562,-1930.760009765625C652.7769775390625,-1930.01708984375,654.6676635742188,-1929.560546875,656.5950927734375,-1929.407958984375C655.6806640625,-1932.735595703125,653.9201049804688,-1935.76904296875,651.485595703125,-1938.2142333984375L651.485595703125,-1938.2142333984375M641.02734375,-1936.448974609375C640.3507080078125,-1934.95703125,640.0003662109375,-1933.33740234375,640,-1931.69873046875C640.0003662109375,-1929.95458984375,640.3970336914062,-1928.2333984375,641.1605224609375,-1926.6650390625C641.8222045898438,-1928.9630126953125,642.81640625,-1931.151123046875,644.1112060546875,-1933.161376953125C642.9613647460938,-1934.1365966796875,641.927490234375,-1935.23974609375,641.02734375,-1936.448974609375L641.02734375,-1936.448974609375M645.4508056640625,-1932.0604248046875C644.0205078125,-1929.7847900390625,642.9918212890625,-1927.2808837890625,642.4080200195312,-1924.6575927734375C643.640869140625,-1923.064453125,645.2703857421875,-1921.822998046875,647.1337890625,-1921.0577392578125C648.919189453125,-1924.115234375,651.6492309570312,-1926.5128173828125,654.9141235351562,-1927.88720703125C653.337646484375,-1928.131591796875,651.7985229492188,-1928.568359375,650.3284301757812,-1929.1878662109375C648.5990600585938,-1929.95703125,646.9617309570312,-1930.920654296875,645.4508056640625,-1932.0604248046875L645.4508056640625,-1932.0604248046875M662.3531494140625,-1927.895751953125C661.1461181640625,-1927.789306640625,659.9470825195312,-1927.605712890625,658.7642211914062,-1927.3426513671875C658.960205078125,-1925.85986328125,658.9955444335938,-1924.359130859375,658.8698120117188,-1922.86865234375C660.4632568359375,-1924.199462890625,661.6668090820312,-1925.936279296875,662.3528442382812,-1927.895751953125L662.3531494140625,-1927.895751953125M657.1002807617188,-1926.87158203125C655.1763305664062,-1926.28125,653.3871459960938,-1925.314697265625,651.8370971679688,-1924.031005859375C650.6500854492188,-1923.02587890625,649.6300659179688,-1921.839111328125,648.8145751953125,-1920.51513671875C649.6945190429688,-1920.3038330078125,650.5960693359375,-1920.197265625,651.5009765625,-1920.1973876953125C653.4265747070312,-1920.1973876953125,655.3214111328125,-1920.68115234375,657.0112915039062,-1921.6038818359375C657.2681884765625,-1923.3482666015625,657.2976684570312,-1925.119140625,657.1002807617188,-1926.87158203125L657.1002807617188,-1926.87158203125" style="stroke-width: 0.194921; stroke-linecap: square; stroke-linejoin: bevel; stroke-miterlimit: 5.4; paint-order: markers; fill: rgb(0, 0, 0); fill-opacity: 1;"/></g></g></svg>