<svg width="30" xmlns="http://www.w3.org/2000/svg" height="18.336" id="screenshot-f62b77d5-3a9d-80c5-8007-85f981350f7e" viewBox="636 -1819 30 18.336" xmlns:xlink="http://www.w3.org/1999/xlink" fill="none" version="1.1"><g id="shape-f62b77d5-3a9d-80c5-8007-85f981350f7e"><g class="fills" id="fills-f62b77d5-3a9d-80c5-8007-85f981350f7e"><path d="M645.5859375,-1819C643.18994140625,-1818.996826171875,641.25,-1817.0286865234375,641.25,-1814.6048583984375C641.25,-1813.435302734375,641.7113647460938,-1812.3138427734375,642.5308227539062,-1811.4892578125C643.3502197265625,-1810.6640625,644.4609985351562,-1810.205322265625,645.6167602539062,-1810.2110595703125C648.0130004882812,-1810.223876953125,649.9462280273438,-1812.195556640625,649.9381103515625,-1814.6192626953125C649.9287109375,-1817.0438232421875,647.9820556640625,-1819.0042724609375,645.5859375,-1819ZM656.8471069335938,-1819C654.447998046875,-1819.00244140625,652.5023803710938,-1817.03662109375,652.499755859375,-1814.609619140625C652.4982299804688,-1813.4443359375,652.9555053710938,-1812.325439453125,653.7694091796875,-1811.50048828125C654.5830078125,-1810.6751708984375,655.6869506835938,-1810.212646484375,656.8389892578125,-1810.2110595703125C659.23779296875,-1810.20849609375,661.1852416992188,-1812.1727294921875,661.1876831054688,-1814.599853515625C661.190185546875,-1817.027099609375,659.245849609375,-1818.9971923828125,656.8471069335938,-1819ZM653.1915893554688,-1808.7655029296875C654.3818969726562,-1808.107666015625,655.47802734375,-1807.242431640625,656.4223022460938,-1805.9510498046875C656.5203247070312,-1805.814697265625,656.57177734375,-1805.6513671875,656.5702514648438,-1805.4837646484375L656.5830078125,-1800.66357421875L665.9999389648438,-1800.66357421875L665.9999389648438,-1805.239501953125L665.8309936523438,-1805.433349609375C663.8223266601562,-1807.75048828125,660.3374633789062,-1809.1318359375,656.5081176757812,-1809.1318359375C655.390380859375,-1809.13818359375,654.27783203125,-1809.013916015625,653.1926879882812,-1808.7655029296875ZM655.0159301757812,-1800.6668701171875L654.997314453125,-1805.1142578125C653.7026977539062,-1806.80419921875,652.1940307617188,-1807.62060546875,650.2398071289062,-1808.3603515625C648.712158203125,-1808.880615234375,647.1091918945312,-1809.1424560546875,645.4938354492188,-1809.1351318359375C641.66455078125,-1809.1351318359375,638.1796264648438,-1807.7554931640625,636.1712036132812,-1805.438232421875L636,-1805.242919921875L636,-1800.66357421875Z" style="stroke-width: 0.264583; fill: rgb(0, 0, 0); fill-opacity: 1;"/></g></g></svg>