<svg width="25" xmlns="http://www.w3.org/2000/svg" height="23" id="screenshot-5cd73327-19fd-80a8-8007-c34a36ed3064" viewBox="-774.6 1044 25 23" xmlns:xlink="http://www.w3.org/1999/xlink" fill="none" version="1.1"><g id="shape-5cd73327-19fd-80a8-8007-c34a36ed3064"><g class="fills" id="fills-5cd73327-19fd-80a8-8007-c34a36ed3064"><path d="M-765.9529418945312,1044.0003662109375L-768.1057739257812,1046.3963623046875L-771.5204467773438,1046.3963623046875C-773.2128295898438,1046.3963623046875,-774.5999145507812,1047.8055419921875,-774.5999145507812,1049.5240478515625L-774.5999145507812,1063.8726806640625C-774.5999145507812,1065.5914306640625,-773.2128295898438,1066.9996337890625,-771.5204467773438,1066.9996337890625L-752.6795043945312,1066.9996337890625C-750.9873657226562,1066.9996337890625,-749.6000366210938,1065.5914306640625,-749.6000366210938,1063.8726806640625L-749.6000366210938,1049.5240478515625C-749.6000366210938,1047.8055419921875,-750.9873657226562,1046.3963623046875,-752.6795043945312,1046.3963623046875L-756.0940551757812,1046.3963623046875L-758.2470092773438,1044.0003662109375ZM-765.3113403320312,1045.4774169921875L-758.8814086914062,1045.4774169921875L-756.7286987304688,1047.8665771484375L-752.6795043945312,1047.8665771484375C-751.7693481445312,1047.8665771484375,-751.0470581054688,1048.5982666015625,-751.0470581054688,1049.5240478515625L-751.0470581054688,1063.8726806640625C-751.0470581054688,1064.7984619140625,-751.7693481445312,1065.5306396484375,-752.6795043945312,1065.5306396484375L-771.5204467773438,1065.5306396484375C-772.4307250976562,1065.5306396484375,-773.1527709960938,1064.7984619140625,-773.1527709960938,1063.8726806640625L-773.1527709960938,1049.5240478515625C-773.1527709960938,1048.5982666015625,-772.4307250976562,1047.8665771484375,-771.5204467773438,1047.8665771484375L-767.4642944335938,1047.8665771484375ZM-762.0963745117188,1049.9798583984375C-765.7389526367188,1049.9798583984375,-768.7118530273438,1052.9993896484375,-768.7118530273438,1056.6983642578125C-768.7118530273438,1060.3966064453125,-765.7389526367188,1063.4163818359375,-762.0963745117188,1063.4163818359375C-758.4541625976562,1063.4163818359375,-755.4880981445312,1060.3966064453125,-755.4880981445312,1056.6983642578125C-755.4880981445312,1052.9993896484375,-758.4541625976562,1049.9798583984375,-762.0963745117188,1049.9798583984375ZM-762.0963745117188,1051.4569091796875C-759.2379760742188,1051.4569091796875,-756.9352416992188,1053.7952880859375,-756.9352416992188,1056.6983642578125C-756.9352416992188,1059.6002197265625,-759.2379760742188,1061.9400634765625,-762.0963745117188,1061.9400634765625C-764.9548950195312,1061.9400634765625,-767.2647094726562,1059.6002197265625,-767.2647094726562,1056.6983642578125C-767.2647094726562,1053.7952880859375,-764.9548950195312,1051.4569091796875,-762.0963745117188,1051.4569091796875ZM-762.0963745117188,1052.1373291015625C-764.5692749023438,1052.1373291015625,-766.5874633789062,1054.1871337890625,-766.5874633789062,1056.6983642578125C-766.5874633789062,1059.2098388671875,-764.5692749023438,1061.2593994140625,-762.0963745117188,1061.2593994140625C-759.6239624023438,1061.2593994140625,-757.6056518554688,1059.2098388671875,-757.6052856445312,1056.6983642578125C-757.6056518554688,1054.1871337890625,-759.6239624023438,1052.1373291015625,-762.0963745117188,1052.1373291015625ZM-762.0963745117188,1053.6070556640625C-760.4067993164062,1053.6070556640625,-759.0527954101562,1054.9815673828125,-759.0524291992188,1056.6983642578125C-759.0527954101562,1058.4141845703125,-760.4067993164062,1059.7899169921875,-762.0963745117188,1059.7899169921875C-763.7863159179688,1059.7899169921875,-765.1403198242188,1058.4141845703125,-765.1403198242188,1056.6983642578125C-765.1403198242188,1054.9815673828125,-763.7863159179688,1053.6070556640625,-762.0963745117188,1053.6070556640625Z" style="baseline-shift: baseline; display: inline; overflow: visible; vector-effect: none; stop-color: rgb(0, 0, 0); fill: rgb(255, 255, 255);"/></g></g></svg>