<svg width="25" xmlns="http://www.w3.org/2000/svg" height="25" id="screenshot-5cd73327-19fd-80a8-8007-c34a36ed3062" viewBox="-685 1126 25 25" xmlns:xlink="http://www.w3.org/1999/xlink" fill="none" version="1.1"><g id="shape-5cd73327-19fd-80a8-8007-c34a36ed3062"><g class="fills" id="fills-5cd73327-19fd-80a8-8007-c34a36ed3062"><path d="M-672.4970092773438,1126.0003662109375C-679.3922729492188,1126.0003662109375,-685.0001831054688,1131.6002197265625,-685.0001831054688,1138.4964599609375C-685.0001831054688,1145.3917236328125,-679.3922729492188,1151.0003662109375,-672.4970092773438,1151.0003662109375C-665.6021118164062,1151.0003662109375,-659.9999389648438,1145.3917236328125,-659.9999389648438,1138.4964599609375C-659.9999389648438,1131.6002197265625,-665.6021118164062,1126.0003662109375,-672.4970092773438,1126.0003662109375ZM-672.4970092773438,1127.4959716796875C-666.4116821289062,1127.4959716796875,-661.4961547851562,1132.4097900390625,-661.4961547851562,1138.4964599609375C-661.4961547851562,1144.5823974609375,-666.4116821289062,1149.5037841796875,-672.4970092773438,1149.5037841796875C-678.5828247070312,1149.5037841796875,-683.5020141601562,1144.5823974609375,-683.5020141601562,1138.4964599609375C-683.5020141601562,1132.4097900390625,-678.5828247070312,1127.4959716796875,-672.4970092773438,1127.4959716796875ZM-673.2500610351562,1131.3529052734375L-673.2500610351562,1137.7508544921875L-679.6477661132812,1137.7508544921875L-679.6477661132812,1139.2489013671875L-673.2500610351562,1139.2489013671875L-673.2500610351562,1145.6478271484375L-671.7520141601562,1145.6478271484375L-671.7520141601562,1139.2489013671875L-665.3545532226562,1139.2489013671875L-665.3545532226562,1137.7508544921875L-671.7520141601562,1137.7508544921875L-671.7520141601562,1131.3529052734375Z" style="vector-effect: none; baseline-shift: baseline; overflow: visible; paint-order: markers stroke; stroke-miterlimit: 5.4; display: inline; stop-color: rgb(0, 0, 0); stroke-linecap: square; fill: rgb(255, 255, 255); fill-opacity: 1;"/></g></g></svg>