<svg width="31" xmlns="http://www.w3.org/2000/svg" height="26" id="screenshot-f62b77d5-3a9d-80c5-8007-85f622aedf53" viewBox="0 0 31 26" xmlns:xlink="http://www.w3.org/1999/xlink" fill="none" version="1.1"><g id="shape-f62b77d5-3a9d-80c5-8007-85f622aedf53" rx="0" ry="0" style="fill: rgb(0, 0, 0);"><g id="shape-f62b77d5-3a9d-80c5-8007-85f622aedf54"><g class="fills" id="fills-f62b77d5-3a9d-80c5-8007-85f622aedf54"><path d="M24.26422119140625,16.146728515625L24.1497802734375,17.42822265625L30.8857421875,18.041259765625L30.99993896484375,16.75927734375Z" style="stroke-width: 0.2; stroke-linecap: square; stroke-linejoin: bevel; stroke-miterlimit: 5.4; paint-order: markers; fill: rgb(0, 0, 0); fill-opacity: 1;"/></g></g><g id="shape-f62b77d5-3a9d-80c5-8007-85f622aedf55"><g class="fills" id="fills-f62b77d5-3a9d-80c5-8007-85f622aedf55"><path d="M16.47210693359375,9.9873046875C16.5914306640625,10.80859375,16.76422119140625,11.71630859375,17.005126953125,12.71728515625C17.128173828125,13.22802734375,17.25616455078125,13.706787109375,17.38861083984375,14.154296875C17.4490966796875,14.083984375,17.5101318359375,14.00341796875,17.57037353515625,13.9140625C17.88189697265625,13.453125,18.14190673828125,12.801513671875,17.87628173828125,11.77099609375C17.60528564453125,10.71875,17.11932373046875,10.309814453125,16.7125244140625,10.09521484375C16.626220703125,10.0498046875,16.54608154296875,10.013916015625,16.47198486328125,9.9873046875L16.47210693359375,9.9873046875" style="stroke-width: 0.2; stroke-linecap: square; stroke-linejoin: bevel; stroke-miterlimit: 5.4; paint-order: markers; fill: rgb(0, 0, 0); fill-opacity: 1;"/></g></g><g id="shape-f62b77d5-3a9d-80c5-8007-85f622aedf56"><g class="fills" id="fills-f62b77d5-3a9d-80c5-8007-85f622aedf56"><path d="M29.89849853515625,8.2080078125L23.21282958984375,9.75537109375L23.49725341796875,11.00439453125L30.1824951171875,9.457275390625Z" style="stroke-width: 0.2; stroke-linecap: square; stroke-linejoin: bevel; stroke-miterlimit: 5.4; paint-order: markers; fill: rgb(0, 0, 0); fill-opacity: 1;"/></g></g><g id="shape-f62b77d5-3a9d-80c5-8007-85f622aedf57"><g class="fills" id="fills-f62b77d5-3a9d-80c5-8007-85f622aedf57"><path d="M21.56646728515625,20.5712890625C22.026611328125,20.00390625,22.28436279296875,18.99755859375,22.333251953125,17.563720703125C22.3040771484375,13.2294921875,21.290283203125,8.958984375,19.3748779296875,5.08154296875L19.404296875,5.10888671875L19.40570068359375,5.10693359375C18.7215576171875,3.843017578125,18.0406494140625,3.0634765625,17.3709716796875,2.767578125C17.33251953125,2.81298828125,17.28424072265625,2.87548828125,17.22283935546875,2.962158203125C17.03533935546875,3.22802734375,16.78271484375,3.68408203125,16.58038330078125,4.41455078125C16.32659912109375,5.33056640625,16.154541015625,6.6796875,16.31463623046875,8.61279296875C16.568603515625,8.649658203125,16.9356689453125,8.736572265625,17.3170166015625,8.937744140625C18.0089111328125,9.30224609375,18.7835693359375,10.0791015625,19.13519287109375,11.4443359375C19.49267578125,12.83203125,19.1253662109375,13.9482421875,18.65264892578125,14.650390625C18.37640380859375,15.06103515625,18.05841064453125,15.35302734375,17.8419189453125,15.52392578125C18.7203369140625,17.9169921875,19.71209716796875,19.20654296875,20.50921630859375,19.896484375C20.922607421875,20.253662109375,21.2840576171875,20.4560546875,21.567138671875,20.571533203125Z" style="stroke-width: 0.2; stroke-linecap: square; stroke-linejoin: bevel; stroke-miterlimit: 5.4; paint-order: markers; fill: rgb(0, 0, 0); fill-opacity: 1;"/></g></g><g id="shape-f62b77d5-3a9d-80c5-8007-85f622aedf58"><g class="fills" id="fills-f62b77d5-3a9d-80c5-8007-85f622aedf58"><path d="M15.570556640625,3.32763671875C15.544677734375,3.36669921875,15.51983642578125,3.40576171875,15.49664306640625,3.4462890625C15.3779296875,3.6083984375,15.25054931640625,3.80126953125,15.07281494140625,4.040771484375C14.747802734375,4.518798828125,14.4259033203125,5.00048828125,14.422119140625,5.008544921875C12.79583740234375,7.553955078125,10.2308349609375,9.33642578125,7.2977294921875,9.9599609375L1.69049072265625,11.165283203125C0.536865234375,11.41455078125,-0.19818115234375,12.561279296875,0.04718017578125,13.72802734375L0.891357421875,17.70751953125C1.009033203125,18.268310546875,1.34246826171875,18.759521484375,1.81817626953125,19.07177734375C2.29351806640625,19.384033203125,2.87310791015625,19.49365234375,3.42779541015625,19.374755859375L4.1072998046875,19.22900390625L7.4591064453125,26L12.8880615234375,25.50732421875L8.409423828125,18.30126953125L9.03839111328125,18.16455078125C11.966552734375,17.52734375,15.02655029296875,18.102294921875,17.53350830078125,19.7587890625L17.57867431640625,19.78466796875C18.56512451171875,20.32177734375,19.20672607421875,20.662109375,19.6307373046875,20.8662109375C18.3018798828125,19.704345703125,16.80145263671875,17.44384765625,15.7406005859375,13.0322265625C14.67547607421875,8.60400390625,14.84503173828125,5.80029296875,15.326904296875,4.0625C15.401611328125,3.79248046875,15.48443603515625,3.54833984375,15.5704345703125,3.328125L15.570556640625,3.32763671875" style="stroke-width: 0.2; stroke-linecap: square; stroke-linejoin: bevel; stroke-miterlimit: 5.4; paint-order: markers; fill: rgb(0, 0, 0); fill-opacity: 1;"/></g></g><g id="shape-f62b77d5-3a9d-80c5-8007-85f622aedf59"><g class="fills" id="fills-f62b77d5-3a9d-80c5-8007-85f622aedf59"><path d="M26.64080810546875,0L20.93414306640625,3.615478515625L21.606689453125,4.7021484375L27.313232421875,1.0849609375Z" style="stroke-width: 0.2; stroke-linecap: square; stroke-linejoin: bevel; stroke-miterlimit: 5.4; paint-order: markers; fill: rgb(0, 0, 0); fill-opacity: 1;"/></g></g></g></svg>