<svg width="31" xmlns="http://www.w3.org/2000/svg" height="26" id="screenshot-f62b77d5-3a9d-80c5-8007-85f6d1cf3712" viewBox="769 -2188 31 26" xmlns:xlink="http://www.w3.org/1999/xlink" fill="none" version="1.1"><g id="shape-f62b77d5-3a9d-80c5-8007-85f6d1cf3712"><g class="fills" id="fills-f62b77d5-3a9d-80c5-8007-85f6d1cf3712"><path d="M792.2141723632812,-2178.24365234375L798.899658203125,-2179.791015625L799.182861328125,-2178.5419921875L792.4974975585938,-2176.994140625L792.2141723632812,-2178.24365234375M789.9345092773438,-2184.3828125L795.6414794921875,-2188.000244140625L796.3148803710938,-2186.91455078125L790.6080322265625,-2183.29736328125L789.9345092773438,-2184.3828125M793.1500854492188,-2170.57080078125L793.26416015625,-2171.8525390625L800,-2171.23974609375L799.8857421875,-2169.958251953125L793.1500854492188,-2170.57080078125M788.4053344726562,-2182.8916015625C787.4039916992188,-2184.7412109375,786.4110107421875,-2185.556884765625,785.4476318359375,-2185.33056640625C785.3414306640625,-2185.30419921875,785.2391357421875,-2185.263427734375,785.1431884765625,-2185.2109375C785.029541015625,-2185.17041015625,784.928955078125,-2185.099853515625,784.8516235351562,-2185.005859375C784.7129516601562,-2184.873046875,784.5931396484375,-2184.720703125,784.4969482421875,-2184.55322265625C784.3780517578125,-2184.391357421875,784.2514038085938,-2184.19873046875,784.0739135742188,-2183.95947265625C783.7486572265625,-2183.48095703125,783.42724609375,-2182.99853515625,783.4234619140625,-2182.98974609375C781.7970581054688,-2180.44482421875,779.2317504882812,-2178.66259765625,776.2986450195312,-2178.039306640625L770.6911010742188,-2176.834716796875C769.5374755859375,-2176.5849609375,768.8020629882812,-2175.438232421875,769.0473022460938,-2174.271728515625L769.8922119140625,-2170.291015625C770.0099487304688,-2169.72998046875,770.3433837890625,-2169.23974609375,770.8187255859375,-2168.92724609375C771.2939453125,-2168.61474609375,771.8731689453125,-2168.505859375,772.4279174804688,-2168.625L772.4279174804688,-2168.625L773.1084594726562,-2168.77001953125L776.4593505859375,-2162L781.88916015625,-2162.4912109375L777.409912109375,-2169.69677734375L778.0394287109375,-2169.833984375C780.9678955078125,-2170.47119140625,784.0262451171875,-2169.897216796875,786.533447265625,-2168.24072265625L786.579833984375,-2168.214599609375C787.6151733398438,-2167.65087890625,788.27001953125,-2167.3046875,788.692626953125,-2167.10400390625C788.868408203125,-2166.99658203125,789.0615234375,-2166.92138671875,789.2630004882812,-2166.8818359375L789.2630004882812,-2166.8818359375C789.337646484375,-2166.87548828125,789.4124145507812,-2166.87548828125,789.4869995117188,-2166.8818359375C789.58837890625,-2166.8818359375,789.6892700195312,-2166.89501953125,789.7874145507812,-2166.92041015625C790.7422485351562,-2167.14697265625,791.2617797851562,-2168.330322265625,791.3336791992188,-2170.43603515625C791.3046264648438,-2174.77001953125,790.291259765625,-2179.03955078125,788.3759155273438,-2182.917236328125L788.4051513671875,-2182.89111328125M786.4019165039062,-2173.86083984375C786.23291015625,-2174.42919921875,786.068115234375,-2175.0439453125,785.9119262695312,-2175.69775390625C785.7299194335938,-2176.4794921875,785.5780639648438,-2177.252197265625,785.4635009765625,-2177.99609375C786.1146850585938,-2177.81640625,786.731689453125,-2177.04736328125,786.9090576171875,-2176.073486328125C787.0357055664062,-2175.4853515625,786.9721069335938,-2174.87109375,786.7274169921875,-2174.322265625C786.647216796875,-2174.150146484375,786.5370483398438,-2173.994140625,786.4019165039062,-2173.86083984375M777.789794921875,-2171.08447265625L775.3898315429688,-2170.56787109375L779.7467651367188,-2163.583740234375L777.2364501953125,-2163.357421875L773.8302612304688,-2170.23046875L772.195068359375,-2169.8798828125C771.72607421875,-2169.779541015625,771.265380859375,-2170.08154296875,771.163818359375,-2170.55517578125L770.3185424804688,-2174.5361328125C770.2636108398438,-2174.763671875,770.3023071289062,-2175.004150390625,770.428955078125,-2175.201171875C770.5545654296875,-2175.398193359375,770.7542724609375,-2175.534423828125,770.9819946289062,-2175.578125L770.9819946289062,-2175.578125L776.593994140625,-2176.78271484375C779.505859375,-2177.400390625,782.1031494140625,-2179.0498046875,783.917236328125,-2181.4345703125C783.9401245117188,-2179.400634765625,784.1959228515625,-2177.37646484375,784.6820678710938,-2175.40283203125C785.1295166015625,-2173.41796875,785.8013916015625,-2171.49169921875,786.6851196289062,-2169.662109375C784.0046997070312,-2171.235595703125,780.8412475585938,-2171.74267578125,777.810791015625,-2171.0849609375L777.7913208007812,-2171.0849609375M790.0796508789062,-2170.45263671875C790.0162963867188,-2168.649658203125,789.6068725585938,-2168.1630859375,789.5094604492188,-2168.141357421875L789.4669799804688,-2168.141357421875L789.125,-2168.3125C788.5755004882812,-2168.77392578125,787.66259765625,-2170.19189453125,786.8132934570312,-2172.583984375C787.2691040039062,-2172.86962890625,787.6321411132812,-2173.283935546875,787.8572998046875,-2173.77587890625C788.2208251953125,-2174.5771484375,788.3214111328125,-2175.47509765625,788.1444091796875,-2176.338623046875C787.8189086914062,-2178.046875,786.597900390625,-2179.26904296875,785.2797241210938,-2179.32861328125C785.1871337890625,-2180.142578125,785.1516723632812,-2180.96142578125,785.173828125,-2181.7802734375C785.1544189453125,-2182.49462890625,785.2824096679688,-2183.205078125,785.5542602539062,-2183.864990234375L785.6891479492188,-2184.0615234375L785.7440185546875,-2184.095458984375L785.7440185546875,-2184.095458984375C785.875244140625,-2184.095458984375,786.4494018554688,-2183.8095703125,787.2695922851562,-2182.2890625C789.0654907226562,-2178.614013671875,790.0175170898438,-2174.57666015625,790.05419921875,-2170.47802734375L790.0805053710938,-2170.45166015625" style="stroke-width: 0.264583; fill: rgb(0, 0, 0); fill-opacity: 1;"/></g></g></svg>