<svg width="34" xmlns="http://www.w3.org/2000/svg" height="21" id="screenshot-f62b77d5-3a9d-80c5-8007-85f7298eecea" viewBox="637 -2065 34 21" xmlns:xlink="http://www.w3.org/1999/xlink" fill="none" version="1.1"><g id="shape-f62b77d5-3a9d-80c5-8007-85f7298eecea"><g class="fills" id="fills-f62b77d5-3a9d-80c5-8007-85f7298eecea"><path d="M647.918212890625,-2064.999755859375C645.2789306640625,-2064.999755859375,642.8458862304688,-2063.54931640625,641.5587768554688,-2061.210205078125C640.2841796875,-2058.89306640625,640.349853515625,-2056.06494140625,641.69287109375,-2053.79345703125L637.0001831054688,-2048.62060546875L644.5254516601562,-2051.07958984375C645.4288940429688,-2050.590576171875,646.4224243164062,-2050.3056640625,647.444091796875,-2050.2353515625L647.44580078125,-2050.233642578125C647.8140258789062,-2050.22021484375,648.1898803710938,-2050.20947265625,648.6556396484375,-2050.206298828125C649.794189453125,-2050.117431640625,652.316162109375,-2050.14208984375,654.5883178710938,-2050.240478515625C656.50439453125,-2050.322265625,658.8286743164062,-2051.735107421875,660.0128784179688,-2053.669921875C661.0442504882812,-2055.354736328125,661.3468017578125,-2057.3818359375,660.84716796875,-2059.321044921875C660.6900634765625,-2059.930908203125,660.6354370117188,-2060.087646484375,660.5667724609375,-2060.346435546875L660.5564575195312,-2060.346435546875C659.4437255859375,-2063.14111328125,656.789794921875,-2064.988037109375,653.81787109375,-2064.99951171875ZM662.5154418945312,-2059.9296875C662.518798828125,-2059.93115234375,662.5154418945312,-2059.9296875,662.5154418945312,-2059.9296875ZM662.5154418945312,-2059.9296875C662.529296875,-2059.874267578125,662.5427856445312,-2059.8173828125,662.5595092773438,-2059.7587890625C663.1754150390625,-2057.36767578125,662.8079223632812,-2054.8466796875,661.5260620117188,-2052.752197265625C660.0245361328125,-2050.299072265625,657.326171875,-2048.58544921875,654.660400390625,-2048.47119140625C652.6354370117188,-2048.38818359375,650.613037109375,-2048.349853515625,648.5883178710938,-2048.437255859375C648.5469970703125,-2048.437255859375,648.507080078125,-2048.437255859375,648.4685668945312,-2048.437255859375C649.8218994140625,-2046.683349609375,651.9083251953125,-2045.60546875,654.1773681640625,-2045.6021728515625L660.0765380859375,-2045.6021728515625C661.2593383789062,-2045.600830078125,662.4212646484375,-2045.9071044921875,663.4675903320312,-2046.4658203125L670.9998779296875,-2044.000244140625L666.26806640625,-2049.1796875C667.5760498046875,-2051.37939453125,667.6797485351562,-2054.10546875,666.515380859375,-2056.390380859375C665.6612548828125,-2058.06591796875,664.218994140625,-2059.311279296875,662.5157470703125,-2059.92919921875ZM648.4685668945312,-2048.43798828125C648.4685668945312,-2048.43798828125,648.4697265625,-2048.43701171875,648.4685668945312,-2048.437744140625Z" style="baseline-shift: baseline; display: inline; overflow: visible; vector-effect: none; stop-color: rgb(0, 0, 0); fill: rgb(0, 0, 0); fill-opacity: 1;"/></g></g></svg>