<svg id="Layer_1" data-name="Layer 1" xmlns="http://www.w3.org/2000/svg" viewBox="0 0 78.61 47.99"><title>2-chat</title><path d="M67.94,36.48A16.91,16.91,0,0,0,54.6,10.72,17,17,0,0,0,38.87,0H25A16.93,16.93,0,0,0,10.58,25.8L0,37.28l17-5.47a16.86,16.86,0,0,0,7,2A16.94,16.94,0,0,0,39.72,44.5H53.61a16.91,16.91,0,0,0,8-2l17,5.47ZM17.32,28.57,9.94,31l4.48-4.87-.72-1A13.93,13.93,0,0,1,25,3H38.87a13.93,13.93,0,0,1,0,27.85H25a13.88,13.88,0,0,1-7.08-1.94ZM61.2,39.23l-.58.34a13.88,13.88,0,0,1-7.08,1.94H39.65a13.94,13.94,0,0,1-12.39-7.66H38.91A16.94,16.94,0,0,0,55.79,17a16.3,16.3,0,0,0-.3-3.11,13.9,13.9,0,0,1,9.36,21.92l-.72,1,4.48,4.86Z" transform="translate(0 0.02)"/></svg>