<svg width="34" xmlns="http://www.w3.org/2000/svg" height="20.923" id="screenshot-f62b77d5-3a9d-80c5-8007-899d0c34a9e0" viewBox="767 -2065 34 20.923" xmlns:xlink="http://www.w3.org/1999/xlink" fill="none" version="1.1"><g id="shape-f62b77d5-3a9d-80c5-8007-899d0c34a9e0"><g class="fills" id="fills-f62b77d5-3a9d-80c5-8007-899d0c34a9e0"><path d="M777.917724609375,-2065C775.2782592773438,-2065,772.845947265625,-2063.555908203125,771.5589599609375,-2061.224609375C770.2842407226562,-2058.91650390625,770.34912109375,-2056.096923828125,771.6923828125,-2053.833251953125L767,-2048.68017578125L774.5250854492188,-2051.130859375C775.4288940429688,-2050.64404296875,776.4230346679688,-2050.35986328125,777.4445190429688,-2050.289794921875C778.5574340820312,-2047.511962890625,781.2103881835938,-2045.677734375,784.1768188476562,-2045.67333984375L790.075439453125,-2045.67333984375C791.2579956054688,-2045.671875,792.4215698242188,-2045.977783203125,793.4681396484375,-2046.5343017578125L800.9999389648438,-2044.0771484375L796.2677612304688,-2049.236572265625C797.5755615234375,-2051.4287109375,797.6787719726562,-2054.146240234375,796.5143432617188,-2056.4228515625C795.3475952148438,-2058.703369140625,793.084716796875,-2060.18408203125,790.5554809570312,-2060.36376953125C789.44287109375,-2063.1484375,786.7887573242188,-2064.988037109375,783.8167114257812,-2065ZM777.917724609375,-2063.5302734375L783.8165893554688,-2063.5302734375C786.9715576171875,-2063.44091796875,789.4821166992188,-2060.826171875,789.4821166992188,-2057.62890625C789.4821166992188,-2054.42822265625,786.9678955078125,-2051.812744140625,783.8098754882812,-2051.7275390625L777.917724609375,-2051.7275390625C776.8756713867188,-2051.72705078125,775.8546752929688,-2052.01025390625,774.9583740234375,-2052.54833984375L774.6983032226562,-2052.6943359375L774.651611328125,-2052.621337890625L774.6242065429688,-2052.70068359375L771.818115234375,-2051.7666015625L773.5376586914062,-2053.6611328125L773.1912841796875,-2054.1513671875C771.8978881835938,-2055.94921875,771.7119750976562,-2058.329833984375,772.711181640625,-2060.31103515625C773.7105712890625,-2062.2919921875,775.720947265625,-2063.5361328125,777.9168701171875,-2063.52978515625ZM790.9885864257812,-2058.748046875C792.93896484375,-2058.416748046875,794.6404418945312,-2057.17333984375,795.4209594726562,-2055.32373046875C796.2232666015625,-2053.421142578125,795.9790649414062,-2051.23046875,794.781005859375,-2049.554931640625L794.4344482421875,-2049.06494140625L796.154052734375,-2047.177001953125L793.334716796875,-2048.11767578125L793.3006591796875,-2048.02490234375L793.25390625,-2048.111083984375L793.007080078125,-2047.965576171875C792.1102905273438,-2047.42724609375,791.0897827148438,-2047.14404296875,790.0475463867188,-2047.14404296875L784.1421508789062,-2047.14404296875C782.0101928710938,-2047.1544189453125,780.092041015625,-2048.369384765625,779.0764770507812,-2050.257080078125L783.8287963867188,-2050.257080078125C787.8297119140625,-2050.2705078125,791.0728759765625,-2053.548828125,791.0941772460938,-2057.595458984375C791.0940551757812,-2057.9814453125,791.0493774414062,-2058.367431640625,790.9876098632812,-2058.748046875Z" style="baseline-shift: baseline; display: inline; overflow: visible; vector-effect: none; stop-color: rgb(0, 0, 0); fill: rgb(0, 0, 0); fill-opacity: 1;"/></g></g></svg>