<svg width="24" xmlns="http://www.w3.org/2000/svg" height="24" id="screenshot-d5198585-ca1c-80e1-8007-d435dc5ca9f9" viewBox="0 0 24 24" xmlns:xlink="http://www.w3.org/1999/xlink" fill="none" version="1.1"><g id="shape-d5198585-ca1c-80e1-8007-d435dc5ca9f9"><g class="fills" id="fills-d5198585-ca1c-80e1-8007-d435dc5ca9f9"><path d="M11.9990234375,0.000152587890625C5.380126953125,0.000152587890625,-0.000244140625,5.380279541015625,-0.000244140625,12.000396728515625C-0.000244140625,18.619537353515625,5.380126953125,24.000640869140625,11.9990234375,24.000640869140625C18.61767578125,24.000640869140625,24,18.619537353515625,24,12.000396728515625C24,5.380279541015625,18.61767578125,0.000152587890625,11.9990234375,0.000152587890625ZM11.9990234375,1.455963134765625C17.830810546875,1.455963134765625,22.54443359375,6.167633056640625,22.54443359375,12.000396728515625C22.54443359375,17.832183837890625,17.830810546875,22.544586181640625,11.9990234375,22.544586181640625C6.166748046875,22.544586181640625,1.455322265625,17.832183837890625,1.455322265625,12.000396728515625C1.455322265625,6.167633056640625,6.166748046875,1.455963134765625,11.9990234375,1.455963134765625ZM7.7060546875,7.398345947265625C6.69921875,7.398345947265625,5.88671875,8.210357666015625,5.88671875,9.217681884765625C5.88671875,10.224273681640625,6.69921875,11.037750244140625,7.7060546875,11.037750244140625C8.712890625,11.037750244140625,9.525390625,10.224273681640625,9.525390625,9.217681884765625C9.525390625,8.210357666015625,8.712890625,7.398345947265625,7.7060546875,7.398345947265625ZM16.197021484375,7.398345947265625C15.18994140625,7.398345947265625,14.37744140625,8.210357666015625,14.37744140625,9.217681884765625C14.37744140625,10.224273681640625,15.18994140625,11.037750244140625,16.197021484375,11.037750244140625C17.20361328125,11.037750244140625,18.0166015625,10.224273681640625,18.0166015625,9.217681884765625C18.0166015625,8.210357666015625,17.20361328125,7.398345947265625,16.197021484375,7.398345947265625ZM5.74072265625,14.676910400390625C6.7109375,17.157379150390625,9.125244140625,18.921783447265625,11.95166015625,18.921783447265625C14.77783203125,18.921783447265625,17.19189453125,17.157379150390625,18.162353515625,14.676910400390625L16.130859375,14.676910400390625C15.287841796875,16.119049072265625,13.74072265625,17.102447509765625,11.95166015625,17.102447509765625C10.162109375,17.102447509765625,8.61572265625,16.119049072265625,7.7724609375,14.676910400390625Z" style="stroke-width: 0.165365; fill: rgb(153, 153, 153);"/></g></g></svg>