<svg id="Layer_1" data-name="Layer 1" xmlns="http://www.w3.org/2000/svg" viewBox="0 0 103.78 103.78"><title>group</title><circle cx="51.89" cy="51.89" r="51.89" fill="#ac62a7"/><circle cx="55.68" cy="24.49" r="5.36" fill="#fff"/><path d="M276.72,419.45a5.36,5.36,0,1,0-5.36-5.36A5.36,5.36,0,0,0,276.72,419.45Z" transform="translate(-246.11 -368.61)" fill="#fff"/><path d="M288.39,427.8A11.78,11.78,0,0,0,278,421.6H275.4A11.78,11.78,0,0,0,265,427.8L260,437.19a3.21,3.21,0,1,0,5.66,3l3.59-6.66v9.15c0,2.37,15,2.37,15,0v-9.15l3.6,6.68a3.21,3.21,0,0,0,5.66-3Z" transform="translate(-246.11 -368.61)" fill="#fff"/><path d="M323.81,409.23a5.36,5.36,0,1,0-5.36-5.36A5.35,5.35,0,0,0,323.81,409.23Z" transform="translate(-246.11 -368.61)" fill="#fff"/><path d="M340.55,427l-5.07-9.42a11.8,11.8,0,0,0-10.38-6.2h-2.6a11.76,11.76,0,0,0-5.76,1.52l-3.28-6.09a11.8,11.8,0,0,0-10.38-6.2h-2.6a11.81,11.81,0,0,0-10.38,6.2L285,416.2a3.21,3.21,0,1,0,5.66,3l3.59-6.67v7.16c0,2.37,15,2.37,15,0v-7.16l2.77,5.15-5,9.25a3.21,3.21,0,1,0,5.66,3l3.59-6.66v9.15c0,2.37,15,2.37,15,0v-9.15l3.6,6.68a3.21,3.21,0,0,0,5.66-3Z" transform="translate(-246.11 -368.61)" fill="#fff"/></svg>
