<svg id="Layer_1" data-name="Layer 1" xmlns="http://www.w3.org/2000/svg" viewBox="0 0 47.02 47.02"><title>2-network</title><path d="M23.51,0A23.51,23.51,0,1,0,47,23.51,23.52,23.52,0,0,0,23.51,0Zm-.06,12.1a35.2,35.2,0,0,1,9,15.51,32.32,32.32,0,0,1-9.87-2.38,42,42,0,0,1-8-4.78,37.13,37.13,0,0,1,4.54-5A34.26,34.26,0,0,1,23.45,12.1ZM44,23.51a21.48,21.48,0,0,1-.3,3.4,42.72,42.72,0,0,1-8.13.84c-.05-.19-.09-.38-.14-.56a38.29,38.29,0,0,0-9.34-16.68A43.32,43.32,0,0,1,35.5,6.89,20.47,20.47,0,0,1,44,23.51ZM31.93,4.82a42.34,42.34,0,0,0-8.08,3.52,41.59,41.59,0,0,0-6.22-4.48,20.45,20.45,0,0,1,14.3,1Zm-17.86.5a39,39,0,0,1,7.1,4.7,37.84,37.84,0,0,0-9,8.54,30.83,30.83,0,0,1-5.71-6.51A20.47,20.47,0,0,1,14.07,5.32ZM4.87,15a34.94,34.94,0,0,0,5.59,6A43.2,43.2,0,0,0,5.2,32.66,20.34,20.34,0,0,1,4.87,15Zm2.54,21.2a41.4,41.4,0,0,1,5.41-13.26A43.85,43.85,0,0,0,21.41,28a34.36,34.36,0,0,0,8.08,2.29,28.82,28.82,0,0,0-13.8,12.19,20.76,20.76,0,0,1-8.28-6.28Zm11.24,7.23a25.94,25.94,0,0,1,5.42-6.35,26.92,26.92,0,0,1,9.27-5,36,36,0,0,1-.2,9.56,20.27,20.27,0,0,1-14.49,1.81Zm17.78-4a36.69,36.69,0,0,0-.16-8.18,48.9,48.9,0,0,1,6.6-1,20.7,20.7,0,0,1-6.44,9.19Z" transform="translate(0 0)" fill="#231f20"/></svg>