<svg xmlns="http://www.w3.org/2000/svg" xmlns:xlink="http://www.w3.org/1999/xlink" aria-hidden="true" role="img" width="16" height="16" preserveAspectRatio="xMidYMid meet" viewBox="0 0 20 20"><path d="M5.274 6.915c.2 0 .394.029.576.086a15.774 15.774 0 0 1 2.283-2.1a1.954 1.954 0 0 1 .048-1.076A14.407 14.407 0 0 0 5.17 2.171a9.25 9.25 0 0 0-2.582 2.381c.519.92 1.136 1.777 1.838 2.557c.256-.124.543-.194.848-.194zM3.316 8.872c0-.275.058-.537.159-.773A15.91 15.91 0 0 1 1.78 5.87a9.165 9.165 0 0 0-.98 4.131a9.16 9.16 0 0 0 1.295 4.705a15.614 15.614 0 0 1 1.62-4.652a1.947 1.947 0 0 1-.399-1.182zm6.72-6.383c.517 0 .985.201 1.336.529a15.578 15.578 0 0 1 3.215-.992A9.154 9.154 0 0 0 10 .8a9.167 9.167 0 0 0-3.236.588a15.76 15.76 0 0 1 2.277 1.375c.292-.174.631-.274.995-.274zm2.926 9.219a1.94 1.94 0 0 1 .509-.656a14.336 14.336 0 0 0-2.672-4.803a1.956 1.956 0 0 1-1.901-.211a14.343 14.343 0 0 0-1.964 1.803a1.93 1.93 0 0 1 .207 1.617a14.252 14.252 0 0 0 5.821 2.25zm2.539 2.643a15.872 15.872 0 0 1-.081 3.082a9.216 9.216 0 0 0 3.347-4.639a15.39 15.39 0 0 1-2.181.365a1.958 1.958 0 0 1-1.085 1.192zm-2.997-1.327a15.643 15.643 0 0 1-6.21-2.484a1.953 1.953 0 0 1-1.423.248a14.219 14.219 0 0 0-1.599 5.484a9.203 9.203 0 0 0 3.145 2.205a15.662 15.662 0 0 1 6.087-5.453zm3.672-9.843a14.296 14.296 0 0 0-4.193 1.068a1.946 1.946 0 0 1-.191 1.056a15.68 15.68 0 0 1 2.969 5.291a1.961 1.961 0 0 1 1.77 1.195c.886-.09 1.748-.26 2.578-.504a9.178 9.178 0 0 0-2.933-8.106zm-2.687 10.888a14.291 14.291 0 0 0-5.723 4.856A9.187 9.187 0 0 0 10 19.2a9.165 9.165 0 0 0 3.882-.859c.19-.928.29-1.887.29-2.869c0-.355-.016-.707-.043-1.055a1.923 1.923 0 0 1-.64-.348z" fill="currentColor"/></svg>