<svg width="30" xmlns="http://www.w3.org/2000/svg" height="18.337" id="screenshot-f62b77d5-3a9d-80c5-8007-85f9e3fc8bcf" viewBox="766 -1819 30 18.337" xmlns:xlink="http://www.w3.org/1999/xlink" fill="none" version="1.1"><g id="shape-f62b77d5-3a9d-80c5-8007-85f9e3fc8bcf"><g class="fills" id="fills-f62b77d5-3a9d-80c5-8007-85f9e3fc8bcf"><path d="M775.615966796875,-1810.2108154296875C778.01220703125,-1810.2232666015625,779.946044921875,-1812.1962890625,779.9376831054688,-1814.62060546875C779.9283447265625,-1817.0445556640625,777.982666015625,-1819.004150390625,775.58642578125,-1819C773.1903076171875,-1818.996826171875,771.25,-1817.029541015625,771.25,-1814.60546875L771.25,-1814.60546875C771.25,-1813.436279296875,771.7106323242188,-1812.314697265625,772.530029296875,-1811.489990234375C773.3494873046875,-1810.6651611328125,774.4601440429688,-1810.2049560546875,775.615966796875,-1810.2108154296875M775.615966796875,-1817.6376953125C777.2740478515625,-1817.6376953125,778.6180419921875,-1816.278076171875,778.6180419921875,-1814.60107421875C778.6180419921875,-1812.923828125,777.2740478515625,-1811.56396484375,775.615966796875,-1811.56396484375C773.9583740234375,-1811.56396484375,772.6144409179688,-1812.923828125,772.6144409179688,-1814.60107421875L772.6144409179688,-1814.60107421875C772.6170043945312,-1816.2769775390625,773.9592895507812,-1817.63525390625,775.615966796875,-1817.6376953125M795.8298950195312,-1805.433837890625C793.8212890625,-1807.7509765625,790.3362426757812,-1809.13134765625,786.5067749023438,-1809.13134765625C784.621337890625,-1809.140869140625,782.7517700195312,-1808.782958984375,781.0001220703125,-1808.076904296875C779.2485961914062,-1808.784423828125,777.378662109375,-1809.14404296875,775.4930419921875,-1809.1357421875C771.6636962890625,-1809.1357421875,768.1784057617188,-1807.75537109375,766.1698608398438,-1805.4384765625L765.9998168945312,-1805.24365234375L765.9998168945312,-1800.66357421875L796,-1800.66357421875L796,-1805.239013671875L795.8298950195312,-1805.433837890625M783.6392211914062,-1802.0166015625L767.3418579101562,-1802.0166015625L767.3418579101562,-1804.732177734375C769.1315307617188,-1806.61962890625,772.2002563476562,-1807.782470703125,775.4928588867188,-1807.782470703125C778.7854614257812,-1807.782470703125,781.8720703125,-1806.61962890625,783.6392211914062,-1804.732177734375L783.6392211914062,-1802.0166015625M794.6578369140625,-1802.0166015625L784.9813842773438,-1802.0166015625L784.9813842773438,-1805.239013671875L784.815673828125,-1805.433837890625C784.1962280273438,-1806.143798828125,783.4739990234375,-1806.7540283203125,782.6727294921875,-1807.243896484375C783.9182739257812,-1807.611083984375,785.2093505859375,-1807.795654296875,786.5066528320312,-1807.791748046875C789.7992553710938,-1807.791748046875,792.890625,-1806.628662109375,794.6576538085938,-1804.7412109375L794.6576538085938,-1802.0166015625M786.8388671875,-1810.210693359375C789.2382202148438,-1810.208251953125,791.184814453125,-1812.173583984375,791.1874389648438,-1814.600830078125C791.1898803710938,-1817.027587890625,789.2469482421875,-1818.997314453125,786.8479614257812,-1818.9998779296875C784.4488525390625,-1819.00244140625,782.5020751953125,-1817.037109375,782.4998168945312,-1814.609619140625L782.4998168945312,-1814.609619140625C782.498046875,-1813.444091796875,782.9548950195312,-1812.325927734375,783.7688598632812,-1811.501220703125C784.5823974609375,-1810.676025390625,785.6870727539062,-1810.211669921875,786.8388671875,-1810.210693359375M786.8388671875,-1817.637451171875C788.4968872070312,-1817.64013671875,789.8427734375,-1816.282470703125,789.84521484375,-1814.605224609375C789.84765625,-1812.927978515625,788.5059204101562,-1811.56640625,786.8479614257812,-1811.563720703125C785.1901245117188,-1811.561767578125,783.8442993164062,-1812.9189453125,783.841796875,-1814.5960693359375L783.841796875,-1814.5960693359375C783.8409423828125,-1815.401611328125,784.1558227539062,-1816.1744384765625,784.7178955078125,-1816.744873046875C785.2798461914062,-1817.315185546875,786.0427856445312,-1817.63623046875,786.8388671875,-1817.637451171875" style="stroke-width: 0.264583; fill: rgb(0, 0, 0); fill-opacity: 1;"/></g></g></svg>