<svg id="Layer_1" data-name="Layer 1" xmlns="http://www.w3.org/2000/svg" viewBox="0 0 73.28 60.86"><title>2-public</title><rect x="55" y="20.97" width="16.23" height="3" transform="translate(-3.36 14.68) rotate(-12.9)" fill="#231f20"/><rect x="49.06" y="3.98" width="15.94" height="3" transform="translate(5.86 31.16) rotate(-32.09)" fill="#231f20"/><rect x="63.64" y="32.38" width="3" height="15.94" transform="matrix(0.09, -1, 1, 0.09, 19.04, 101.53)" fill="#231f20"/><path d="M45.86,11.94c-2.37-4.33-4.72-6.24-7-5.71a3.16,3.16,0,0,0-.72.28,1.6,1.6,0,0,0-.69.48,4.79,4.79,0,0,0-.84,1.06c-.28.38-.58.83-1,1.39-.77,1.12-1.53,2.25-1.54,2.27A26.58,26.58,0,0,1,17.21,23.3L3.94,26.12a5.06,5.06,0,0,0-3.89,6l2,9.32a5.06,5.06,0,0,0,6,3.9h0L9.66,45l7.93,15.85L30.44,59.7,19.84,42.83l1.49-.32a26.53,26.53,0,0,1,20.1,3.73l.11.06c2.45,1.32,4,2.13,5,2.6a4.11,4.11,0,0,0,1.35.52h0a3.07,3.07,0,0,0,.53,0,2.82,2.82,0,0,0,.71-.09c2.26-.53,3.49-3.3,3.66-8.23a66.47,66.47,0,0,0-7-29.22ZM41.12,33.08c-.4-1.33-.79-2.77-1.16-4.3-.43-1.83-.79-3.64-1.06-5.38,1.54.42,3,2.22,3.42,4.5a6.57,6.57,0,0,1-.43,4.1,3.74,3.74,0,0,1-.77,1.08Zm-20.38,6.5-5.68,1.21L25.37,57.14l-5.94.53L11.37,41.58,7.5,42.4a2.06,2.06,0,0,1-2.44-1.58l-2-9.32a2,2,0,0,1,1.57-2.44h0l13.28-2.82A29.5,29.5,0,0,0,35.24,15.35a61.13,61.13,0,0,0,1.81,14.12,62.06,62.06,0,0,0,4.74,13.44,29.48,29.48,0,0,0-21-3.33Zm29.08,1.48c-.15,4.22-1.12,5.36-1.35,5.41h-.1l-.81-.4c-1.3-1.08-3.46-4.4-5.47-10a6.48,6.48,0,0,0,2.47-2.79,9.68,9.68,0,0,0,.68-6c-.77-4-3.66-6.86-6.78-7a40.78,40.78,0,0,1-.25-5.74,11.82,11.82,0,0,1,.9-4.88l.32-.46.13-.08h0c.31,0,1.67.67,3.61,4.23A63.74,63.74,0,0,1,49.76,41Z" transform="translate(0.06 0.02)" fill="#231f20"/></svg>