<svg id="Layer_1" data-name="Layer 1" xmlns="http://www.w3.org/2000/svg" viewBox="0 0 103.78 103.78">
    <title>user</title>
    <circle cx="51.89" cy="51.89" r="51.89" fill="#8dc63f"/>
    <circle cx="51.89" cy="29.02" r="10.01" fill="#fff"/>
    <path d="M298,461.39a40.6,40.6,0,0,0,14-2.47V434l6.73,12.48a6,6,0,0,0,10.58-5.68l-9.48-17.59a22,22,0,0,0-19.39-11.58h-4.87a22,22,0,0,0-19.39,11.58l-9.46,17.57a6,6,0,0,0,10.58,5.68L284,434v24.9A40.62,40.62,0,0,0,298,461.39Z"
          transform="translate(-246.11 -368.61)" fill="#fff"/>
</svg>
