<svg xmlns="http://www.w3.org/2000/svg" viewBox="0 0 536.75 528.63"><rect width="536.75" height="528.63" rx="79.53" fill="#56a3c8"/><path fill="#fff" class="b" d="m346.79 244.24 11.16-20.14 21.26 12.75 7-12.75 2.31 1.37v-25.53l-10.59-6.31s-3.75 6.83-7 12.69l-21.18-12.7-11 19.85-17.06 30.77Zm-59.51 106.84q0 2.61 6.62 5.47 8.48 3.87 12.74 3.86c.73 0 1.18-.13 1.37-.42.72-.82.47-3.1-.81-6.84q-4.14-11.67-12.49-11.66c-1.73 0-3.44 1.13-5 3.4a11.17 11.17 0 0 0-2.43 6.19ZM400.1 232.37l12.61 7.51-2.33 4.36h24.88l6.68-12.47-41.84-24.93v25.53zm6.97 109.74q-1.24-6.33-6.85-17.15-6.47-12.5-11-12.5c-1.37 0-3.67 1.83-6.86 5.5a53.7 53.7 0 0 0-5.92 7.4Zm-160.66 6.96c1.21-9.59 5.32-20.21 12.44-32.19 11-19 24.08-28.95 38.81-29.56v22q-9.79 1.2-19.79 18.57-7.31 12.29-9.19 21.18Zm-70.07 11.09h-21.93v15.42a31.54 31.54 0 0 1-6.76 5.92c-4.25 2.93-7.9 4.48-10.47 4.48a19.56 19.56 0 0 1-19.68-19.67 55 55 0 0 1 .42-6.17H95.87c-.21 2.26-.31 4.33-.31 6.17a41.5 41.5 0 0 0 41.61 41.58c7.23 0 14.79-2.74 22.75-8.23q11.76-7.95 16.41-17.85Z"/><path fill="#fff" class="b" d="M297.66 430.87a61.47 61.47 0 0 1-39.18 13.67c-15.56 0-27.83-4.45-36.9-13.31q-11-10.81-13.31-27.44 11.4 11.28 21.53 15 9.19 3.69 25.13 3.7 15.49 0 29.81-9.83t19.56-24.47a38.82 38.82 0 0 1-25.1-9.32q-9.13-7.78-10.86-18.68h-22.08c1.28 13.82 7.68 26 18.72 35.37.82.69 1.72 1.18 2.55 1.83a27.8 27.8 0 0 1-12.6 3.17c-10.16 0-15-1.33-17-2.12l-.3-.12-.3-.11c-2.12-.78-6.72-3.12-13.67-10l-1.42-1.4c0-.94.1-1.87.1-2.82v-23.83h-21.9v23.81q0 17.58-23.74 34.17-20.83 14.69-44.71 14.69-23 0-37.42-14.79t-14.4-37.85a65.21 65.21 0 0 1 3.64-20H60.97a81.31 81.31 0 0 0-2.73 20c0 21.2 6.94 39.08 20.6 53.14s32 21.43 53.15 21.43c20.46 0 39.76-6.29 57.35-18.69 1.93-1.35 3.75-2.73 5.52-4.11a66.13 66.13 0 0 0 11.33 14.9c13.35 13 30.92 19.61 52.29 19.61a82.9 82.9 0 0 0 39.18-9.5Zm11-10.81a64.71 64.71 0 0 0 14.21-32.89h66.28v21.93h-49.3a87.45 87.45 0 0 1-23.84 35 93.28 93.28 0 0 1-7.3 5.93ZM172.87 244.24l-1.36-7.21 24.61-25 2.44 28.81 3.2 3.38h30.21c-4.17-4.41-10.29-10.86-12.2-12.89l-5.82-68.64-33.45 34-32.63 33.11s1.28 6.81 2.71 14.44ZM97.42 349.07c1.68-9.19 2.6-14.79 2.77-16.75a52.47 52.47 0 0 0-12 16.75H64.44c5-13.9 12.13-25 21.1-33.07l41.21-37-4.71 55.15c-.16 1.88-.58 5.1-2.34 14.89Zm77.55-93.83 1.37 7.3v86.53h-21.93v-84.48c-.19-1-.89-4.74-1.75-9.35ZM382.62 96.58a137.86 137.86 0 0 0-195 0l19 19a110.89 110.89 0 0 1 157 0Z"/><path fill="#fff" class="b" d="m325.73 153.47 18.95-19a84.12 84.12 0 0 0-119.09 0l18.94 19a57.34 57.34 0 0 1 81.2 0Zm-40.6 40.6 21.66-21.66a30.6 30.6 0 0 0-43.31 0Zm114.97 69.05.12.07 4.26-7.95h24.88l-8.37 15.61c21.88 25.82 24.88 62.46 25.34 75.99l.1 2.23h-22l-.11-2.23a204.62 204.62 0 0 0-3.81-28.53q-6.45-30.89-20.41-34.28Zm0 124.05h9c7.71 0 12-.83 13.06-2.47 1.83-2.55 2.74-9.8 2.74-21.69v-2.94h21.93v2.94c0 17.39-1.73 26.66-6.25 33.53-8 12.52-23.84 12.56-31.48 12.56h-9Zm-177.73-38.1v-71.22c1.67-3.55 7.09-15.12 10.61-22.61h-24.23l-8.31 17.72v76.11Zm86.29-60.51c9.66 2.61 21.48 10.07 29.75 29.47 2.61-8.72 7.35-17.89 14.31-27.66a105.71 105.71 0 0 1 7-9l-42.63-26.16h41.93l13 7.95 7-13 9.58 5.86v29.52q-8.65 4.2-17.8 17.35-12.8 18-12.77 30.61 0 13.57 14.13 21.67l10.3 4.4h-57.01a94.15 94.15 0 0 0-6.18-30.47q-4.42-11.67-10.61-16.47Z"/></svg>