<?xml version="1.0" encoding="utf-8"?>
<!-- Generator: Adobe Illustrator 19.2.1, SVG Export Plug-In . SVG Version: 6.00 Build 0)  -->
<svg version="1.1" id="Ebene_1" xmlns="http://www.w3.org/2000/svg" xmlns:xlink="http://www.w3.org/1999/xlink" x="0px" y="0px"
	 viewBox="0 0 841.9 595.3" style="enable-background:new 0 0 841.9 595.3;" xml:space="preserve">
<style type="text/css">
	.st0{opacity:0.35;fill:#FFFFFF;}
	.st1{opacity:0.35;}
	.st2{fill:#FFFFFF;}
</style>
<path class="st0" d="M526.8,260.1l21.3,12.8l7-12.8l2.3,1.4V236l-10.6-6.3c0,0-3.7,6.8-7,12.7c-0.3-0.2-21.2-12.7-21.2-12.7
	l-11,19.8l-17.7,32h25.1L526.8,260.1z"/>
<path class="st0" d="M528.5,317.4c-2.4,2.7-4.7,5.7-7,9c-7,9.8-11.7,18.9-14.3,27.7c-9.4-22.1-23.5-28.7-33.7-30.3v22.6
	c5.8,2.4,10.7,8.6,14.6,18.8c3.7,9.8,5.8,20,6.2,30.5h56.9l-10.3-4.4c-9.4-5.4-14.1-12.6-14.1-21.7c0-8.4,4.2-18.6,12.8-30.6
	c6.1-8.8,12-14.5,17.8-17.3v-29.5l-9.6-5.9l-7,13l-17.7-10.8h-37l-1.2,2.2L528.5,317.4z"/>
<path class="st0" d="M369.2,309v79.4h21.9c0-29.2,0-68.9,0-74.5c1.9-4.1,8.7-18.6,12-25.5h-24.9l0.4,0.4L369.2,309z"/>
<path class="st0" d="M463.5,377.5c-1.7,0-3.4,1.1-5,3.4c-1.6,2.3-2.4,4.4-2.4,6.2c0,1.7,2.2,3.6,6.6,5.5c5.7,2.6,9.9,3.9,12.7,3.9
	c0.7,0,1.2-0.1,1.4-0.4c0.7-0.8,0.5-3.1-0.8-6.8C473.2,381.4,469.1,377.5,463.5,377.5z"/>
<polygon class="st0" points="581.5,275.9 578.9,280.7 603.8,280.7 610.7,267.8 562.8,239.2 562.8,264.8 "/>
<path class="st0" d="M558,348.5c-1.4,0-3.7,1.8-6.9,5.5c-2.8,3.1-4.8,5.6-5.9,7.4l30.6,16.8c-0.8-4.2-3.1-9.9-6.9-17.2
	C564.7,352.7,561.1,348.5,558,348.5z"/>
<path class="st0" d="M467.9,323.3c-15.3,0-28.9,10-40.2,29.6c-7.9,13.3-12.1,25-12.8,35.4h22c0.7-6.5,3.9-14.7,9.7-24.4
	c7.2-12.4,14.3-18.7,21.3-18.7c0,0,0.1,0,0.1,0v-21.9C468,323.3,467.9,323.3,467.9,323.3z"/>
<path class="st0" d="M276.5,431.8c8.1,8.1,17.9,12.1,29.4,12.1c7.2,0,14.8-2.7,22.7-8.2c7.8-5.3,13.3-11.2,16.4-17.9v-21.7h-21.9
	v15.4c-1.6,2-3.9,4-6.8,5.9c-4.2,2.9-7.9,4.5-10.5,4.5c-5.7,0-10-1.8-14-5.8c-3.9-3.9-5.7-8.2-5.7-13.9c0-1.3,0.1-3.3,0.4-6.2h-22
	c-0.2,2.3-0.3,4.3-0.3,6.2C264.4,413.9,268.4,423.7,276.5,431.8z"/>
<path class="st0" d="M427.3,480.6c-15.6,0-27.8-4.5-36.9-13.3c-7.3-7.2-11.8-16.3-13.3-27.4c7.6,7.5,14.8,12.5,21.5,15
	c6.1,2.5,14.5,3.7,25.1,3.7c10.3,0,20.3-3.3,29.8-9.8c9.6-6.6,16.1-14.7,19.6-24.5c-9.6-0.2-18-3.3-25.1-9.3
	c-6.1-5.2-9.7-11.4-10.9-18.7h-22.1c1.3,13.8,7.7,26,18.7,35.4c0.8,0.7,1.7,1.2,2.6,1.8c-4.2,2.1-8.4,3.2-12.6,3.2
	c-10.2,0-15-1.3-17-2.1l-0.3-0.1l-0.3-0.1c-2.1-0.8-6.7-3.1-13.7-10l-1.4-1.4c0.1-0.9,0.1-1.9,0.1-2.8c0,0,0-10,0-23.8h-21.9V420
	c0,11.7-7.9,23.1-23.7,34.2c-13.9,9.8-28.8,14.7-44.7,14.7c-15.4,0-27.8-4.9-37.4-14.8c-9.6-9.9-14.4-22.5-14.4-37.9
	c0-5.9,1.2-12.6,3.6-20h-22.8c-1.8,7-2.7,13.8-2.7,20c0,21.2,6.9,39.1,20.6,53.1c13.6,14,32,21.4,53.2,21.4
	c20.5,0,39.8-6.3,57.3-18.7c1.9-1.3,3.8-2.7,5.5-4.1c3,5.4,6.8,10.4,11.3,14.9c13.3,13,30.9,19.6,52.3,19.6
	c14.7,0,28.3-3.5,40.7-10.3v-26.5C456.2,475.6,442.6,480.6,427.3,480.6z M390.4,475.2c0.1,0,0.2,0.1,0.3,0.1c0.1,0,0.2,0.1,0.3,0.1
	L390.4,475.2z"/>
<polygon class="st0" points="610.8,349.8 610.8,349.8 610.8,349.8 "/>
<path class="st0" d="M593.7,399c0,11.9-0.9,19.1-2.7,21.7c-1,1.6-5.4,2.5-13.1,2.5h-9.6v21.9c5.9,0,9.6,0,9.6,0
	c7.6,0,23.5,0,31.5-12.6c4.5-6.9,6.3-16.1,6.3-33.5c0-2.8-0.1-5.6-0.1-8.3h-21.9C593.6,393.5,593.7,396.2,593.7,399z"/>
<path class="st0" d="M491.6,423.2c-2,14.5-8,26.9-18.1,37.3v28.3c3.9-2.5,7.6-5.4,11.2-8.7c11.1-10,19-21.8,23.8-35
	c14,0,38.4,0,54.2,0v-21.9H491.6z"/>
<path class="st0" d="M340.4,273.1l24.6-25l2.4,28.8l4.4,4.6H402c-4.1-4.3-11.3-11.9-13.4-14.1c-0.7-8.3-5.8-68.6-5.8-68.6l-33.5,34
	l-32.7,33.1c0,0,1.4,7.6,2.9,15.7h22.3L340.4,273.1z"/>
<path class="st0" d="M269,368.4c-0.2,2-1.1,7.8-2.9,17.3c-0.2,0.9-0.3,1.8-0.5,2.7h22.2c2.3-12.4,2.7-16.1,2.9-18.1l4.7-55.2
	l-41.2,37c-9,8.1-16.2,19.3-21.2,33.3c-0.4,1-0.7,2-1.1,3h23.4C259.1,379.9,263.6,373.2,269,368.4z"/>
<path class="st0" d="M345.1,298.6l-1.9-10.2h-22.3c1.1,5.9,2.1,11,2.3,12.2v87.7h21.9V298.6z"/>
<path class="st0" d="M575.3,287.6l-6.2,11.6l-6.2-3.8v24.4c0.8-0.1,1.7-0.2,2.5-0.2c11.1,0,19.2,11.6,24,34.7
	c1.9,9.1,3.2,18.6,3.9,28.6h22c-0.7-11.5-2.1-22.5-4.4-33.1v0l0,0c-4.6-22.2-12.4-35.4-21-42.9l10.3-19.3H575.3z"/>
<polygon class="st0" points="610.8,349.8 610.8,349.8 610.8,349.8 "/>
<path class="st0" d="M609.6,432.3c-0.1,0.1-0.2,0.2-0.2,0.3c-0.2,0.3-0.4,0.6-0.6,1L609.6,432.3z"/>
<g class="st1">
	<path class="st2" d="M356.5,132.6c24.9-24.9,59.4-40.4,97.5-40.4c38.1,0,72.5,15.4,97.5,40.4l-19,19
		c-20.1-20.1-47.9-32.6-78.5-32.6c-30.6,0-58.4,12.5-78.5,32.6L356.5,132.6z"/>
	<path class="st2" d="M394.4,170.6c15.3-15.3,36.3-24.7,59.5-24.7c23.2,0,44.3,9.4,59.5,24.7l-18.9,18.9
		c-10.4-10.4-24.8-16.8-40.6-16.8c-15.8,0-30.2,6.4-40.6,16.8L394.4,170.6z"/>
	<path class="st2" d="M453.9,230.1l21.7-21.7c-5.5-5.5-13.2-9-21.7-9c-8.4,0-16.1,3.4-21.7,9L453.9,230.1z"/>
</g>
</svg>
