<svg id="Layer_1" data-name="Layer 1" xmlns="http://www.w3.org/2000/svg" viewBox="0 0 67.06 39.46"><title>2-people</title><path d="M21,19.41A9.71,9.71,0,1,0,11.24,9.7h0A9.71,9.71,0,0,0,21,19.41ZM21,3a6.71,6.71,0,1,1-6.71,6.71h0A6.72,6.72,0,0,1,21,3Z" transform="translate(0 0.01)" fill="#231f20"/><path d="M66.68,28.91c-4.49-5.12-12.28-8.17-20.84-8.17a32.8,32.8,0,0,0-12.31,2.33,32.81,32.81,0,0,0-12.31-2.34c-8.56,0-16.35,3.05-20.84,8.17L0,29.33V39.45H67.06V29.34ZM39.43,36.46H3v-6c4-4.17,10.86-6.74,18.22-6.74s14.26,2.57,18.21,6.74Zm24.63,0H42.43V29.34l-.37-.43a20.64,20.64,0,0,0-4.79-4,30.29,30.29,0,0,1,8.57-1.21c7.36,0,14.27,2.57,18.22,6.74Z" transform="translate(0 0.01)" fill="#231f20"/><path d="M45.84,19.41a9.71,9.71,0,1,0-9.7-9.72h0A9.71,9.71,0,0,0,45.84,19.41ZM45.84,3a6.71,6.71,0,1,1-6.7,6.72v0A6.71,6.71,0,0,1,45.84,3Z" transform="translate(0 0.01)" fill="#231f20"/></svg>