<svg width="65" xmlns="http://www.w3.org/2000/svg" height="65" id="screenshot-5bb7c5d6-ac2b-80f4-8008-6e4c7b138077" viewBox="0 0 65 65" xmlns:xlink="http://www.w3.org/1999/xlink" fill="none" version="1.1"><g id="shape-5bb7c5d6-ac2b-80f4-8008-6e4c7b138077"><g class="frame-container-wrapper"><g class="frame-container-blur"><g class="frame-container-shadows"><g fill="none"><g class="fills" id="fills-5bb7c5d6-ac2b-80f4-8008-6e4c7b138077"><rect rx="0" ry="0" x="0" y="0" width="65" height="65" transform="matrix(1.000000, 0.000000, 0.000000, 1.000000, 0.000000, 0.000000)" class="frame-background"/></g><g class="frame-children"><g id="shape-5bb7c5d6-ac2b-80f4-8008-6e4c7b138078" rx="0" ry="0" style="fill: rgb(0, 0, 0);"><g id="shape-5bb7c5d6-ac2b-80f4-8008-6e4c7b138079"><g class="fills" id="fills-5bb7c5d6-ac2b-80f4-8008-6e4c7b138079"><rect width="65" height="65" x="0" transform="matrix(1.000000, 0.000000, 0.000000, 1.000000, 0.000000, 0.000000)" style="fill: none;" ry="0" fill="none" rx="0" y="0"/></g></g><g id="shape-5bb7c5d6-ac2b-80f4-8008-6e4c7b13807a"><g class="fills" id="fills-5bb7c5d6-ac2b-80f4-8008-6e4c7b13807a"><ellipse cx="32.5" cy="32.5" rx="32.5" ry="32.5" transform="matrix(1.000000, 0.000000, 0.000000, 1.000000, 0.000000, 0.000000)" style="fill: rgb(0, 0, 0); fill-opacity: 0;"/></g><g id="strokes-cb44ca6c-9414-80f2-8008-88979e64d5aa-5bb7c5d6-ac2b-80f4-8008-6e4c7b13807a" class="strokes"><g class="inner-stroke-shape" transform="matrix(1.000000, 0.000000, 0.000000, 1.000000, 0.000000, 0.000000)"><defs><clipPath id="inner-stroke-render-4-5bb7c5d6-ac2b-80f4-8008-6e4c7b13807a-0"><use href="#stroke-shape-render-4-5bb7c5d6-ac2b-80f4-8008-6e4c7b13807a-0"/></clipPath><ellipse cx="32.5" cy="32.5" rx="32.5" ry="32.5" id="stroke-shape-render-4-5bb7c5d6-ac2b-80f4-8008-6e4c7b13807a-0" style="fill: none; stroke-width: 4; stroke: rgb(255, 255, 255); stroke-opacity: 1;"/></defs><use href="#stroke-shape-render-4-5bb7c5d6-ac2b-80f4-8008-6e4c7b13807a-0" clip-path="url('#inner-stroke-render-4-5bb7c5d6-ac2b-80f4-8008-6e4c7b13807a-0')"/></g></g></g><g id="shape-5bb7c5d6-ac2b-80f4-8008-6e4c7b13807b"><g class="fills" id="fills-5bb7c5d6-ac2b-80f4-8008-6e4c7b13807b"><ellipse cx="32.5" cy="18.17594912314462" rx="6.269512430141731" ry="6.269512430140367" transform="matrix(1.000000, 0.000000, 0.000000, 1.000000, 0.000000, 0.000000)" style="fill: rgb(255, 255, 255); fill-opacity: 0;"/></g><g id="strokes-cb44ca6c-9414-80f2-8008-88979e659e20-5bb7c5d6-ac2b-80f4-8008-6e4c7b13807b" class="strokes"><g class="inner-stroke-shape" transform="matrix(1.000000, 0.000000, 0.000000, 1.000000, 0.000000, 0.000000)"><defs><clipPath id="inner-stroke-render-5-5bb7c5d6-ac2b-80f4-8008-6e4c7b13807b-0"><use href="#stroke-shape-render-5-5bb7c5d6-ac2b-80f4-8008-6e4c7b13807b-0"/></clipPath><ellipse cx="32.5" cy="18.17594912314462" rx="6.269512430141731" ry="6.269512430140367" id="stroke-shape-render-5-5bb7c5d6-ac2b-80f4-8008-6e4c7b13807b-0" style="fill: none; stroke-width: 4; stroke: rgb(255, 255, 255); stroke-opacity: 1;"/></defs><use href="#stroke-shape-render-5-5bb7c5d6-ac2b-80f4-8008-6e4c7b13807b-0" clip-path="url('#inner-stroke-render-5-5bb7c5d6-ac2b-80f4-8008-6e4c7b13807b-0')"/></g></g></g><g id="shape-5bb7c5d6-ac2b-80f4-8008-6e4c7b13807c"><g class="fills" id="fills-5bb7c5d6-ac2b-80f4-8008-6e4c7b13807c"><path d="M32.5,58.1102294921875C35.490966796875,58.114013671875,38.459228515625,57.591064453125,41.2685546875,56.56396484375L41.2685546875,40.955078125L45.4833984375,48.7716064453125C46.466064453125,50.602294921875,48.74609375,51.2890625,50.57568359375,50.306396484375C52.40625,49.3238525390625,53.091796875,47.043701171875,52.1103515625,45.21435546875L46.1728515625,34.1973876953125C43.768310546875,29.727294921875,39.102783203125,26.940673828125,34.028564453125,26.944580078125L30.977783203125,26.944580078125C25.903564453125,26.940673828125,21.23681640625,29.727294921875,18.833480834960938,34.1973876953125L12.908676147460938,45.20166015625C11.926010131835938,47.031005859375,12.612777709960938,49.3111572265625,14.442123413085938,50.293701171875C16.272933959960938,51.2763671875,18.552963256835938,50.589599609375,19.535629272460938,48.7601318359375L23.7314453125,40.955078125L23.7314453125,56.55126953125C26.53955078125,57.5821533203125,29.5078125,58.1102294921875,32.5,58.1102294921875Z" style="fill: rgb(255, 255, 255); fill-opacity: 0;"/></g><g id="strokes-cb44ca6c-9414-80f2-8008-88979e661e11-5bb7c5d6-ac2b-80f4-8008-6e4c7b13807c" class="strokes"><g class="inner-stroke-shape"><defs><clipPath id="inner-stroke-render-6-5bb7c5d6-ac2b-80f4-8008-6e4c7b13807c-0"><use href="#stroke-shape-render-6-5bb7c5d6-ac2b-80f4-8008-6e4c7b13807c-0"/></clipPath><path d="M32.5,58.1102294921875C35.490966796875,58.114013671875,38.459228515625,57.591064453125,41.2685546875,56.56396484375L41.2685546875,40.955078125L45.4833984375,48.7716064453125C46.466064453125,50.602294921875,48.74609375,51.2890625,50.57568359375,50.306396484375C52.40625,49.3238525390625,53.091796875,47.043701171875,52.1103515625,45.21435546875L46.1728515625,34.1973876953125C43.768310546875,29.727294921875,39.102783203125,26.940673828125,34.028564453125,26.944580078125L30.977783203125,26.944580078125C25.903564453125,26.940673828125,21.23681640625,29.727294921875,18.833480834960938,34.1973876953125L12.908676147460938,45.20166015625C11.926010131835938,47.031005859375,12.612777709960938,49.3111572265625,14.442123413085938,50.293701171875C16.272933959960938,51.2763671875,18.552963256835938,50.589599609375,19.535629272460938,48.7601318359375L23.7314453125,40.955078125L23.7314453125,56.55126953125C26.53955078125,57.5821533203125,29.5078125,58.1102294921875,32.5,58.1102294921875Z" id="stroke-shape-render-6-5bb7c5d6-ac2b-80f4-8008-6e4c7b13807c-0" style="fill: none; stroke-width: 4; stroke: rgb(255, 255, 255); stroke-opacity: 1;"/></defs><use href="#stroke-shape-render-6-5bb7c5d6-ac2b-80f4-8008-6e4c7b13807c-0" clip-path="url('#inner-stroke-render-6-5bb7c5d6-ac2b-80f4-8008-6e4c7b13807c-0')"/></g></g></g></g></g></g></g></g></g></g></svg>