<svg width="102.351" xmlns="http://www.w3.org/2000/svg" height="100" id="screenshot-5bb7c5d6-ac2b-80f4-8008-6e63b0013f9b" viewBox="0 0 102.351 100" xmlns:xlink="http://www.w3.org/1999/xlink" fill="none" version="1.1"><g id="shape-5bb7c5d6-ac2b-80f4-8008-6e63b0013f9b" width="210mm" height="297mm" xml:space="preserve" rx="0" ry="0" style="opacity: 1; fill: rgb(0, 0, 0);"><g id="shape-5bb7c5d6-ac2b-80f4-8008-6e63b0013f9c" style="opacity: 1;"><g class="fills" id="fills-5bb7c5d6-ac2b-80f4-8008-6e63b0013f9c"><path d="M53.0528564453125,0.00018310546875C80.24993896484375,0.00018310546875,102.350830078125,22.10711669921875,102.350830078125,49.30487060546875C102.350830078125,76.50189208984375,80.24993896484375,98.64056396484375,53.0528564453125,98.64056396484375C48.90826416015625,98.64056396484375,44.88134765625,98.12518310546875,41.03076171875,97.15692138671875C37.26861572265625,98.97894287109375,33.049560546875,99.99969482421875,28.6016845703125,99.99969482421875C12.8375244140625,99.99969482421875,0,87.16253662109375,0,71.39910888671875C0,65.90594482421875,1.558349609375,60.77288818359375,4.255126953125,56.41033935546875C3.9197998046875,54.09027099609375,3.7491455078125,51.71673583984375,3.7491455078125,49.30487060546875C3.7491455078125,22.10711669921875,25.8558349609375,0.00018310546875,53.0548095703125,0.00018310546875ZM53.0528564453125,5.89984130859375C29.044189453125,5.89984130859375,9.6414794921875,25.29632568359375,9.6414794921875,49.30487060546875C9.6414794921875,49.53997802734375,9.6448974609375,49.77777099609375,9.648681640625,50.01190185546875C14.69921875,45.53045654296875,21.33740234375,42.80560302734375,28.6016845703125,42.80560302734375C31.6337890625,42.80560302734375,34.565185546875,43.27728271484375,37.3118896484375,44.15765380859375C41.09564208984375,41.11785888671875,45.85394287109375,39.37567138671875,50.8717041015625,39.37933349609375L55.229248046875,39.37933349609375C63.199462890625,39.37396240234375,70.52142333984375,43.77728271484375,74.30328369140625,50.78753662109375L82.7833251953125,66.46673583984375C83.8592529296875,68.47015380859375,83.93951416015625,70.74945068359375,83.30615234375,72.47430419921875C82.654541015625,74.24896240234375,81.36041259765625,75.60906982421875,79.78717041015625,76.45379638671875C78.2230224609375,77.29412841796875,76.38299560546875,77.69158935546875,74.4791259765625,77.23699951171875C72.66656494140625,76.80511474609375,70.83331298828125,75.43499755859375,69.77752685546875,73.46502685546875L67.56512451171875,69.37103271484375L67.56512451171875,84.93499755859375L65.59063720703125,85.62640380859375C61.61798095703125,87.00286865234375,57.40802001953125,87.86102294921875,53.076416015625,87.86199951171875C52.71746826171875,87.86199951171875,52.36328125,87.85662841796875,52.0091552734375,87.84661865234375C50.83135986328125,89.51239013671875,49.4801025390625,91.04681396484375,47.98272705078125,92.42596435546875C49.6468505859375,92.61834716796875,51.33782958984375,92.71722412109375,53.0528564453125,92.71722412109375C77.0615234375,92.71722412109375,96.458984375,73.31341552734375,96.458984375,49.30487060546875C96.458984375,25.29632568359375,77.0615234375,5.90081787109375,53.0528564453125,5.90081787109375ZM53.0528564453125,16.17840576171875C59.075927734375,16.17840576171875,63.9937744140625,21.13885498046875,63.9937744140625,27.14910888671875C63.9937744140625,33.15960693359375,59.0634765625,38.06561279296875,53.0528564453125,38.06561279296875C47.04229736328125,38.06561279296875,42.106201171875,33.17132568359375,42.106201171875,27.14910888671875C42.106201171875,21.12615966796875,47.02978515625,16.17840576171875,53.0528564453125,16.17840576171875ZM53.0528564453125,22.07073974609375C50.20953369140625,22.07073974609375,47.99908447265625,24.30560302734375,47.99908447265625,27.14910888671875C47.99908447265625,29.99285888671875,50.196533203125,32.17327880859375,53.0528564453125,32.17327880859375C55.9091796875,32.17327880859375,58.1014404296875,30.00457763671875,58.1014404296875,27.14910888671875C58.1014404296875,24.29290771484375,55.896728515625,22.07073974609375,53.0528564453125,22.07073974609375ZM55.229248046875,45.27166748046875L50.8717041015625,45.27166748046875C48.29315185546875,45.26995849609375,45.805419921875,45.90155029296875,43.59686279296875,47.05389404296875C51.7659912109375,52.09783935546875,57.23260498046875,61.12591552734375,57.23260498046875,71.39910888671875C57.23260498046875,75.07830810546875,56.53387451171875,78.60418701171875,55.257568359375,81.83905029296875C57.40802001953125,81.58856201171875,59.5478515625,81.01605224609375,61.67279052734375,80.40277099609375L61.67279052734375,59.06072998046875L67.8880615234375,57.49383544921875L74.97119140625,70.67669677734375C75.38299560546875,71.44525146484375,75.54449462890625,71.41888427734375,75.84771728515625,71.49066162109375C76.05816650390625,71.54144287109375,76.54449462890625,71.48529052734375,76.97601318359375,71.25286865234375C77.39886474609375,71.02606201171875,77.66412353515625,70.71307373046875,77.76025390625,70.44622802734375C77.87799072265625,70.12860107421875,77.9779052734375,69.98992919921875,77.58245849609375,69.25579833984375L69.14031982421875,53.60662841796875C66.38592529296875,48.48382568359375,61.0394287109375,45.26824951171875,55.229248046875,45.27166748046875ZM28.6016845703125,48.69793701171875C16.0260009765625,48.69793701171875,5.8995361328125,58.82391357421875,5.8995361328125,71.39910888671875C5.8995361328125,83.97406005859375,16.0260009765625,94.10736083984375,28.6016845703125,94.10736083984375C41.1759033203125,94.10736083984375,51.30902099609375,83.97406005859375,51.30902099609375,71.39910888671875C51.30902099609375,58.82391357421875,41.1759033203125,48.69793701171875,28.6016845703125,48.69793701171875Z" style="vector-effect: none; baseline-shift: baseline; overflow: visible; paint-order: fill markers; stroke-miterlimit: 5.4; display: inline; stop-color: rgb(0, 0, 0); stroke-linecap: square; fill: rgb(153, 153, 153); fill-opacity: 1;"/></g></g><g id="shape-5bb7c5d6-ac2b-80f4-8008-6e63b0013f9d" style="opacity: 1;"><g class="fills" id="fills-5bb7c5d6-ac2b-80f4-8008-6e63b0013f9d"><path d="M17.7620849609375,57.26605224609375L17.7620849609375,63.18841552734375L20.69677734375,63.18841552734375L33.1729736328125,63.18841552734375L16.194091796875,80.17401123046875L14.103759765625,82.23284912109375L18.2830810546875,86.42034912109375L20.3734130859375,84.33050537109375L37.27392578125,67.42938232421875L37.27392578125,79.76751708984375L37.27392578125,82.70184326171875L43.197021484375,82.70184326171875L43.197021484375,79.76751708984375L43.197021484375,57.26605224609375L20.69677734375,57.26605224609375ZM17.7620849609375,57.26605224609375L17.7620849609375,63.18841552734375L20.69677734375,63.18841552734375L33.1729736328125,63.18841552734375L16.194091796875,80.17401123046875L14.103759765625,82.23284912109375L18.2830810546875,86.42034912109375L20.3734130859375,84.33050537109375L37.27392578125,67.42938232421875L37.27392578125,79.76751708984375L37.27392578125,82.70184326171875L43.197021484375,82.70184326171875L43.197021484375,79.76751708984375L43.197021484375,57.26605224609375L20.69677734375,57.26605224609375Z" style="vector-effect: none; baseline-shift: baseline; overflow: visible; paint-order: fill markers; stroke-miterlimit: 5.4; display: inline; stop-color: rgb(0, 0, 0); stroke-linecap: square; fill: rgb(153, 153, 153); fill-opacity: 1;"/></g></g></g></svg>