<svg width="29" xmlns="http://www.w3.org/2000/svg" height="29" id="screenshot-5bb7c5d6-ac2b-80f4-8008-6e4c551de85e" viewBox="0 0 29 29" xmlns:xlink="http://www.w3.org/1999/xlink" fill="none" version="1.1"><g id="shape-5bb7c5d6-ac2b-80f4-8008-6e4c551de85e" width="210mm" height="297mm" xml:space="preserve" rx="0" ry="0" style="fill: rgb(0, 0, 0);"><g id="shape-5bb7c5d6-ac2b-80f4-8008-6e4c551de864"><g class="fills" id="fills-5bb7c5d6-ac2b-80f4-8008-6e4c551de864"><path d="M8.442375183105469,-4.547473508864641e-13L20.55760955810547,-4.547473508864641e-13C25.23485565185547,-4.547473508864641e-13,28.99999237060547,3.76513671875,28.99999237060547,8.4422607421875L28.99999237060547,20.5576171875C28.99999237060547,25.234619140625,25.23485565185547,29.000244140625,20.55760955810547,29.000244140625L8.442375183105469,29.000244140625C3.7656173706054688,29.000244140625,-0.000007742863999737892,25.234619140625,-0.000007742863999737892,20.5576171875L-0.000007742863999737892,8.4422607421875C-0.000007742863999737892,3.76513671875,3.7656173706054688,-4.547473508864641e-13,8.442375183105469,-4.547473508864641e-13Z" style="stroke-width: 0.396875; stroke-linecap: square; stroke-linejoin: round; stroke-miterlimit: 5.4; paint-order: markers; fill: rgb(86, 163, 200); fill-opacity: 1;"/></g></g><g id="shape-5bb7c5d6-ac2b-80f4-8008-6e4c551de865"><g class="fills" id="fills-5bb7c5d6-ac2b-80f4-8008-6e4c551de865"><path d="M15.176750183105469,3.3782958984375C12.760734558105469,3.3782958984375,10.443351745605469,4.3380126953125,8.735343933105469,6.046630859375L9.990226745605469,7.3017578125C12.848136901855469,4.43798828125,17.48534393310547,4.4326171875,20.35057830810547,7.2894287109375L20.36229705810547,7.3017578125L21.61620330810547,6.046630859375C19.90917205810547,4.3380126953125,17.59178924560547,3.3782958984375,15.176750183105469,3.3782958984375ZM15.181144714355469,6.91650390625C13.707511901855469,6.9149169921875,12.293937683105469,7.4991455078125,11.249992370605469,8.5413818359375L11.240715026855469,8.5491943359375L12.492668151855469,9.8043212890625C13.969230651855469,8.3226318359375,16.36815643310547,8.3192138671875,17.84862518310547,9.7958984375L17.85936737060547,9.8043212890625L19.11132049560547,8.5491943359375C18.06932830810547,7.5050048828125,16.65624237060547,6.917724609375,15.182609558105469,6.915771484375ZM15.178703308105469,10.463623046875C14.642570495605469,10.463623046875,14.127922058105469,10.676513671875,13.749015808105469,11.0556640625L15.176750183105469,12.48681640625L16.60741424560547,11.0556640625C16.22850799560547,10.676513671875,15.714836120605469,10.463623046875,15.178703308105469,10.463623046875Z" style="stroke: none; paint-order: markers; text-anchor: end; font-family: &quot;Amatic SC&quot;; stroke-width: 0.0960438; stroke-linejoin: round; font-weight: bold; stroke-dasharray: none; white-space: pre; stroke-miterlimit: 5.4; text-align: end; line-height: 1.5; font-size: 68.5092px; stroke-linecap: square; fill: rgb(255, 255, 255);"/></g></g><g id="shape-5bb7c5d6-ac2b-80f4-8008-6e4c551de866"><g class="fills" id="fills-5bb7c5d6-ac2b-80f4-8008-6e4c551de866"><path d="M10.262687683105469,9.6552734375L8.465812683105469,11.2320556640625L8.815422058105469,12.5675048828125L8.815422058105469,16.7022705078125C8.785148620605469,17.1544189453125,8.793937683105469,17.535400390625,8.815422058105469,17.871337890625L8.815422058105469,19.9140625C8.744132995605469,20.16650390625,8.712882995605469,20.41845703125,8.477043151855469,20.68798828125C8.098625183105469,21.1204833984375,7.271476745605469,21.638427734375,6.273429870605469,21.638427734375C5.576164245605469,21.638427734375,5.008781433105469,21.3399658203125,4.570793151855469,20.8974609375C4.229972839355469,20.410400390625,3.9716720581054688,20.25439453125,3.9111251831054688,19.3287353515625C3.8373947143554688,18.21630859375,4.243156433105469,16.807861328125,4.243156433105469,16.807861328125C3.9872970581054688,16.8052978515625,3.8437423706054688,16.76025390625,3.8437423706054688,16.76025390625C3.6391525268554688,17.3360595703125,2.9531173706054688,18.412353515625,2.9145431518554688,20.676025390625C2.9003829956054688,21.5025634765625,3.3041915893554688,22.35546875,3.8486251831054688,22.8193359375C4.398429870605469,23.278076171875,5.416984558105469,23.533447265625,6.386711120605469,23.533447265625C7.548820495605469,23.533447265625,8.163566589355469,23.2777099609375,9.063468933105469,22.633056640625C9.749992370605469,22.1409912109375,10.545890808105469,20.85595703125,10.545890808105469,20.4490966796875L10.545890808105469,19.2508544921875L10.556632995605469,19.2430419921875L10.545890808105469,18.9725341796875L10.545890808105469,18.6546630859375C10.545890808105469,18.5908203125,10.536125183105469,18.48779296875,10.518547058105469,18.344970703125C10.518547058105469,18.344970703125,10.518547058105469,18.344970703125,10.518547058105469,18.3446044921875L10.416007995605469,13.309326171875L10.986320495605469,12.08349609375L10.416007995605469,11.4698486328125ZM22.37206268310547,9.81982421875L21.26268768310547,11.1744384765625L20.02928924560547,10.185302734375L18.66991424560547,11.80126953125L20.20311737060547,13.12890625L21.26561737060547,11.80322265625L22.43260955810547,12.8369140625L23.86717987060547,11.1392822265625ZM21.79491424560547,13.02587890625C21.26952362060547,13.02587890625,20.75048065185547,13.50048828125,20.23827362060547,14.44970703125C19.77147674560547,15.3138427734375,19.53710174560547,16.0606689453125,19.53710174560547,16.68994140625C19.53710174560547,17.1160888671875,19.71581268310547,17.4708251953125,20.07225799560547,17.7537841796875C20.42919158935547,18.0367431640625,20.86717987060547,18.1776123046875,21.38671112060547,18.1776123046875C21.78221893310547,18.1776123046875,22.15624237060547,18.08984375,22.50536346435547,17.913330078125C22.85643768310547,17.737548828125,23.13475799560547,17.4842529296875,23.34227752685547,17.1533203125C23.64257049560547,17.26171875,23.53905487060547,18.277587890625,23.52440643310547,18.945068359375L18.55370330810547,18.9368896484375L18.55370330810547,18.4962158203125C18.55370330810547,17.6746826171875,18.37303924560547,16.9732666015625,18.00878143310547,16.39208984375C17.64647674560547,15.8109130859375,17.20507049560547,15.5198974609375,16.68553924560547,15.5198974609375C16.06346893310547,15.5198974609375,15.508781433105469,15.9228515625,15.021476745605469,16.7281494140625C14.574211120605469,17.469482421875,14.350090026855469,18.239990234375,14.350090026855469,19.039794921875C14.350090026855469,19.6318359375,14.538078308105469,20.1014404296875,14.915031433105469,20.447998046875C15.297355651855469,20.7894287109375,15.809562683105469,20.9600830078125,16.45214080810547,20.9600830078125C16.63475799560547,20.9600830078125,16.86132049560547,20.943603515625,17.13378143310547,20.911376953125C16.35497283935547,21.6690673828125,15.602531433105469,22.2183837890625,14.875968933105469,22.5595703125C14.259757995605469,22.8475341796875,13.636222839355469,22.9918212890625,13.006828308105469,22.9918212890625C12.540031433105469,22.9918212890625,12.122062683105469,22.9381103515625,11.752433776855469,22.8316650390625C11.304191589355469,22.703857421875,10.730461120605469,22.4476318359375,10.029777526855469,22.0635986328125L9.620597839355469,22.528076171875C10.944816589355469,23.360107421875,11.923820495605469,23.9168701171875,12.560050964355469,24.1998291015625C13.202140808105469,24.482421875,13.791984558105469,24.623779296875,14.331047058105469,24.623779296875C15.251945495605469,24.623779296875,16.18651580810547,24.175537109375,17.13378143310547,23.2796630859375C17.89061737060547,22.5640869140625,18.34471893310547,21.8409423828125,18.49657440185547,21.111572265625L24.62694549560547,21.111572265625L24.62792205810547,17.5838623046875C24.62792205810547,16.495849609375,24.32518768310547,15.464111328125,23.72167205810547,14.4876708984375C23.11913299560547,13.5120849609375,22.47655487060547,13.02392578125,21.79491424560547,13.02392578125ZM21.61913299560547,15.0576171875C21.77538299560547,15.0576171875,21.91893768310547,15.108642578125,22.04784393310547,15.209716796875C22.18456268310547,15.3057861328125,22.34032440185547,15.479248046875,22.51561737060547,15.7301025390625C22.29491424560547,15.9058837890625,22.10643768310547,16.0313720703125,21.95067596435547,16.1060791015625C21.80175018310547,16.1756591796875,21.65233612060547,16.209716796875,21.50341033935547,16.209716796875C21.31542205810547,16.209716796875,21.15966033935547,16.1690673828125,21.03563690185547,16.08984375C20.91893768310547,16.004638671875,20.86034393310547,15.9000244140625,20.86034393310547,15.778076171875C20.86034393310547,15.5860595703125,20.93846893310547,15.41796875,21.09471893310547,15.2740478515625C21.24999237060547,15.1300048828125,21.42528533935547,15.0579833984375,21.61913299560547,15.0579833984375ZM16.27733612060547,17.64990234375C16.83592987060547,17.64990234375,17.20507049560547,18.0789794921875,17.38671112060547,18.937744140625L17.01708221435547,18.937744140625C16.59471893310547,18.937744140625,16.25487518310547,18.876220703125,15.995109558105469,18.7537841796875C15.742179870605469,18.6259765625,15.615226745605469,18.466064453125,15.615226745605469,18.273681640625C15.615226745605469,18.119140625,15.674308776855469,17.9779052734375,15.791007995605469,17.85009765625C15.913566589355469,17.7166748046875,16.07616424560547,17.64990234375,16.27733612060547,17.64990234375Z" style="stroke: none; paint-order: markers; text-anchor: end; font-family: &quot;Amatic SC&quot;; stroke-width: 0; stroke-linejoin: round; font-weight: bold; stroke-dasharray: none; white-space: pre; stroke-miterlimit: 5.4; text-align: end; line-height: 1.5; font-size: 68.5092px; stroke-linecap: square; fill: rgb(255, 255, 255);"/></g></g></g></svg>