<?xml version="1.0" encoding="UTF-8" standalone="no"?>
<!DOCTYPE svg PUBLIC "-//W3C//DTD SVG 1.1//EN"
 "http://www.w3.org/Graphics/SVG/1.1/DTD/svg11.dtd">
<!-- Generated by graphviz version 2.40.1 (0)
 -->
<!-- Title: %3 Pages: 1 -->
<svg width="877pt" height="332pt"
 viewBox="0.00 0.00 876.94 332.00" xmlns="http://www.w3.org/2000/svg" xmlns:xlink="http://www.w3.org/1999/xlink">
<g id="graph0" class="graph" transform="scale(1 1) rotate(0) translate(4 328)">
<title>%3</title>
<polygon fill="#ffffff" stroke="transparent" points="-4,4 -4,-328 872.9442,-328 872.9442,4 -4,4"/>
<!-- R.A.T.M.A.N. -->
<g id="node1" class="node">
<title>R.A.T.M.A.N.</title>
<ellipse fill="none" stroke="#000000" cx="267.3502" cy="-162" rx="70.6878" ry="18"/>
<text text-anchor="middle" x="267.3502" y="-158.3" font-family="Times,serif" font-size="14.00" fill="#000000">R.A.T.M.A.N.</text>
</g>
<!-- identity -->
<g id="node2" class="node">
<title>identity</title>
<ellipse fill="none" stroke="#000000" cx="192.3502" cy="-18" rx="46.5926" ry="18"/>
<text text-anchor="middle" x="192.3502" y="-14.3" font-family="Times,serif" font-size="14.00" fill="#000000">identity</text>
</g>
<!-- R.A.T.M.A.N.&#45;&gt;identity -->
<g id="edge1" class="edge">
<title>R.A.T.M.A.N.&#45;&gt;identity</title>
<path fill="none" stroke="#000000" d="M198.9382,-157.2301C130.7313,-150.8818 32.8305,-136.9036 9.3502,-108 -29.7735,-59.8399 70.4335,-35.4401 137.5397,-24.8393"/>
<polygon fill="#000000" stroke="#000000" points="138.2275,-28.275 147.5893,-23.3144 137.1774,-21.3542 138.2275,-28.275"/>
</g>
<!-- netmod -->
<g id="node3" class="node">
<title>netmod</title>
<ellipse fill="none" stroke="#000000" cx="64.3502" cy="-90" rx="46.2923" ry="18"/>
<text text-anchor="middle" x="64.3502" y="-86.3" font-family="Times,serif" font-size="14.00" fill="#000000">netmod</text>
</g>
<!-- R.A.T.M.A.N.&#45;&gt;netmod -->
<g id="edge2" class="edge">
<title>R.A.T.M.A.N.&#45;&gt;netmod</title>
<path fill="none" stroke="#000000" d="M225.7802,-147.256C191.5331,-135.1092 143.1042,-117.9325 108.2371,-105.5658"/>
<polygon fill="#000000" stroke="#000000" points="109.3802,-102.2577 98.7855,-102.2135 107.0402,-108.855 109.3802,-102.2577"/>
</g>
<!-- diagnostics -->
<g id="node4" class="node">
<title>diagnostics</title>
<ellipse fill="none" stroke="#000000" cx="192.3502" cy="-90" rx="63.8893" ry="18"/>
<text text-anchor="middle" x="192.3502" y="-86.3" font-family="Times,serif" font-size="14.00" fill="#000000">diagnostics</text>
</g>
<!-- R.A.T.M.A.N.&#45;&gt;diagnostics -->
<g id="edge3" class="edge">
<title>R.A.T.M.A.N.&#45;&gt;diagnostics</title>
<path fill="none" stroke="#000000" d="M249.1948,-144.5708C239.706,-135.4616 227.9417,-124.1679 217.5815,-114.2221"/>
<polygon fill="#000000" stroke="#000000" points="219.9762,-111.6692 210.3384,-107.2687 215.1284,-116.7189 219.9762,-111.6692"/>
</g>
<!-- routing&#45;core -->
<g id="node5" class="node">
<title>routing&#45;core</title>
<ellipse fill="none" stroke="#000000" cx="342.3502" cy="-90" rx="68.4888" ry="18"/>
<text text-anchor="middle" x="342.3502" y="-86.3" font-family="Times,serif" font-size="14.00" fill="#000000">routing&#45;core</text>
</g>
<!-- R.A.T.M.A.N.&#45;&gt;routing&#45;core -->
<g id="edge4" class="edge">
<title>R.A.T.M.A.N.&#45;&gt;routing&#45;core</title>
<path fill="none" stroke="#000000" d="M285.5056,-144.5708C294.8331,-135.6164 306.3595,-124.551 316.5896,-114.7302"/>
<polygon fill="#000000" stroke="#000000" points="319.312,-116.9685 324.102,-107.5182 314.4642,-111.9187 319.312,-116.9685"/>
</g>
<!-- persistence -->
<g id="node6" class="node">
<title>persistence</title>
<ellipse fill="none" stroke="#000000" cx="493.3502" cy="-90" rx="64.9885" ry="18"/>
<text text-anchor="middle" x="493.3502" y="-86.3" font-family="Times,serif" font-size="14.00" fill="#000000">persistence</text>
</g>
<!-- R.A.T.M.A.N.&#45;&gt;persistence -->
<g id="edge5" class="edge">
<title>R.A.T.M.A.N.&#45;&gt;persistence</title>
<path fill="none" stroke="#000000" d="M311.7308,-147.861C348.8233,-136.0439 401.7915,-119.1691 440.9603,-106.6906"/>
<polygon fill="#000000" stroke="#000000" points="442.1374,-109.989 450.6031,-103.6185 440.0125,-103.3193 442.1374,-109.989"/>
</g>
<!-- netmod&#45;&gt;identity -->
<g id="edge6" class="edge">
<title>netmod&#45;&gt;identity</title>
<path fill="none" stroke="#000000" d="M90.8719,-75.0816C110.008,-64.3175 136.0463,-49.6709 156.9557,-37.9094"/>
<polygon fill="#000000" stroke="#000000" points="158.8626,-40.8525 165.8625,-32.8993 155.4308,-34.7515 158.8626,-40.8525"/>
</g>
<!-- diagnostics&#45;&gt;identity -->
<g id="edge7" class="edge">
<title>diagnostics&#45;&gt;identity</title>
<path fill="none" stroke="#000000" d="M192.3502,-71.8314C192.3502,-64.131 192.3502,-54.9743 192.3502,-46.4166"/>
<polygon fill="#000000" stroke="#000000" points="195.8503,-46.4132 192.3502,-36.4133 188.8503,-46.4133 195.8503,-46.4132"/>
</g>
<!-- routing&#45;core&#45;&gt;identity -->
<g id="edge8" class="edge">
<title>routing&#45;core&#45;&gt;identity</title>
<path fill="none" stroke="#000000" d="M309.432,-74.1993C286.2873,-63.0898 255.2374,-48.1859 230.9287,-36.5177"/>
<polygon fill="#000000" stroke="#000000" points="232.1687,-33.2306 221.6389,-32.0586 229.1396,-39.5413 232.1687,-33.2306"/>
</g>
<!-- libqaul -->
<g id="node7" class="node">
<title>libqaul</title>
<ellipse fill="none" stroke="#000000" cx="625.3502" cy="-234" rx="42.4939" ry="18"/>
<text text-anchor="middle" x="625.3502" y="-230.3" font-family="Times,serif" font-size="14.00" fill="#000000">libqaul</text>
</g>
<!-- libqaul&#45;&gt;R.A.T.M.A.N. -->
<g id="edge9" class="edge">
<title>libqaul&#45;&gt;R.A.T.M.A.N.</title>
<path fill="none" stroke="#000000" d="M587.0379,-226.2947C526.4828,-214.116 407.8972,-190.2664 333.4143,-175.2866"/>
<polygon fill="#000000" stroke="#000000" points="333.7016,-171.7744 323.2078,-173.2339 332.3214,-178.637 333.7016,-171.7744"/>
</g>
<!-- libqaul&#45;&gt;identity -->
<g id="edge12" class="edge">
<title>libqaul&#45;&gt;identity</title>
<path fill="none" stroke="#000000" d="M618.6097,-216.027C614.6962,-205.536 609.6962,-192.036 605.3502,-180 588.0687,-132.1399 606.6676,-104.3013 567.3502,-72 519.8939,-33.0122 342.1173,-22.1704 249.409,-19.1578"/>
<polygon fill="#000000" stroke="#000000" points="249.455,-15.6576 239.3529,-18.8509 249.2414,-22.6544 249.455,-15.6576"/>
</g>
<!-- platform -->
<g id="node8" class="node">
<title>platform</title>
<ellipse fill="none" stroke="#000000" cx="665.3502" cy="-162" rx="50.8918" ry="18"/>
<text text-anchor="middle" x="665.3502" y="-158.3" font-family="Times,serif" font-size="14.00" fill="#000000">platform</text>
</g>
<!-- libqaul&#45;&gt;platform -->
<g id="edge10" class="edge">
<title>libqaul&#45;&gt;platform</title>
<path fill="none" stroke="#000000" d="M635.2378,-216.2022C639.8533,-207.8944 645.4437,-197.8316 650.5487,-188.6427"/>
<polygon fill="#000000" stroke="#000000" points="653.6407,-190.2839 655.4376,-179.8425 647.5216,-186.8844 653.6407,-190.2839"/>
</g>
<!-- qaul&#45;service -->
<g id="node9" class="node">
<title>qaul&#45;service</title>
<ellipse fill="none" stroke="#000000" cx="801.3502" cy="-162" rx="67.6881" ry="18"/>
<text text-anchor="middle" x="801.3502" y="-158.3" font-family="Times,serif" font-size="14.00" fill="#000000">qaul&#45;service</text>
</g>
<!-- libqaul&#45;&gt;qaul&#45;service -->
<g id="edge11" class="edge">
<title>libqaul&#45;&gt;qaul&#45;service</title>
<path fill="none" stroke="#000000" d="M656.007,-221.4586C683.3186,-210.2856 723.6825,-193.7731 754.9478,-180.9828"/>
<polygon fill="#000000" stroke="#000000" points="756.4039,-184.1687 764.3341,-177.1429 753.7534,-177.6899 756.4039,-184.1687"/>
</g>
<!-- qaul&#45;http -->
<g id="node10" class="node">
<title>qaul&#45;http</title>
<ellipse fill="none" stroke="#000000" cx="625.3502" cy="-306" rx="53.0913" ry="18"/>
<text text-anchor="middle" x="625.3502" y="-302.3" font-family="Times,serif" font-size="14.00" fill="#000000">qaul&#45;http</text>
</g>
<!-- qaul&#45;http&#45;&gt;libqaul -->
<g id="edge13" class="edge">
<title>qaul&#45;http&#45;&gt;libqaul</title>
<path fill="none" stroke="#000000" d="M625.3502,-287.8314C625.3502,-280.131 625.3502,-270.9743 625.3502,-262.4166"/>
<polygon fill="#000000" stroke="#000000" points="628.8503,-262.4132 625.3502,-252.4133 621.8503,-262.4133 628.8503,-262.4132"/>
</g>
</g>
</svg>
