<?xml version="1.0" encoding="UTF-8" standalone="no"?>
<!DOCTYPE svg PUBLIC "-//W3C//DTD SVG 1.1//EN"
 "http://www.w3.org/Graphics/SVG/1.1/DTD/svg11.dtd">
<!-- Generated by graphviz version 2.40.1 (0)
 -->
<!-- Title: %3 Pages: 1 -->
<svg width="741pt" height="404pt"
 viewBox="0.00 0.00 741.49 404.00" xmlns="http://www.w3.org/2000/svg" xmlns:xlink="http://www.w3.org/1999/xlink">
<g id="graph0" class="graph" transform="scale(1 1) rotate(0) translate(4 400)">
<title>%3</title>
<polygon fill="#ffffff" stroke="transparent" points="-4,4 -4,-400 737.4913,-400 737.4913,4 -4,4"/>
<!-- R.A.T.M.A.N. -->
<g id="node1" class="node">
<title>R.A.T.M.A.N.</title>
<ellipse fill="none" stroke="#000000" cx="313.7958" cy="-234" rx="66.8882" ry="18"/>
<text text-anchor="middle" x="313.7958" y="-230.3" font-family="Times-Roman" font-size="14.00" fill="#000000">R.A.T.M.A.N.</text>
</g>
<!-- identity -->
<g id="node2" class="node">
<title>identity</title>
<ellipse fill="none" stroke="#000000" cx="313.7958" cy="-90" rx="45.4919" ry="18"/>
<text text-anchor="middle" x="313.7958" y="-86.3" font-family="Times-Roman" font-size="14.00" fill="#000000">identity</text>
</g>
<!-- R.A.T.M.A.N.&#45;&gt;identity -->
<g id="edge1" class="edge">
<title>R.A.T.M.A.N.&#45;&gt;identity</title>
<path fill="none" stroke="#000000" d="M302.045,-215.8241C296.21,-205.7142 289.782,-192.6495 286.7958,-180 283.1198,-164.428 283.1198,-159.572 286.7958,-144 289.0005,-134.6611 293.0811,-125.0959 297.4141,-116.6605"/>
<polygon fill="#000000" stroke="#000000" points="300.5937,-118.1412 302.3269,-107.689 294.4539,-114.779 300.5937,-118.1412"/>
</g>
<!-- netmod -->
<g id="node3" class="node">
<title>netmod</title>
<ellipse fill="none" stroke="#000000" cx="46.7958" cy="-162" rx="46.5926" ry="18"/>
<text text-anchor="middle" x="46.7958" y="-158.3" font-family="Times-Roman" font-size="14.00" fill="#000000">netmod</text>
</g>
<!-- R.A.T.M.A.N.&#45;&gt;netmod -->
<g id="edge2" class="edge">
<title>R.A.T.M.A.N.&#45;&gt;netmod</title>
<path fill="none" stroke="#000000" d="M263.2578,-221.9762C220.368,-211.5548 157.2937,-195.7167 102.7958,-180 99.2512,-178.9778 95.5918,-177.8856 91.9206,-176.7636"/>
<polygon fill="#000000" stroke="#000000" points="92.8345,-173.3824 82.2461,-173.7514 90.7536,-180.066 92.8345,-173.3824"/>
</g>
<!-- diagnostics -->
<g id="node4" class="node">
<title>diagnostics</title>
<ellipse fill="none" stroke="#000000" cx="358.7958" cy="-162" rx="63.0888" ry="18"/>
<text text-anchor="middle" x="358.7958" y="-158.3" font-family="Times-Roman" font-size="14.00" fill="#000000">diagnostics</text>
</g>
<!-- R.A.T.M.A.N.&#45;&gt;diagnostics -->
<g id="edge3" class="edge">
<title>R.A.T.M.A.N.&#45;&gt;diagnostics</title>
<path fill="none" stroke="#000000" d="M324.9194,-216.2022C330.1659,-207.8079 336.5323,-197.6218 342.3234,-188.3558"/>
<polygon fill="#000000" stroke="#000000" points="345.3122,-190.1776 347.6443,-179.8425 339.3762,-186.4675 345.3122,-190.1776"/>
</g>
<!-- routing&#45;core -->
<g id="node5" class="node">
<title>routing&#45;core</title>
<ellipse fill="none" stroke="#000000" cx="507.7958" cy="-162" rx="67.6881" ry="18"/>
<text text-anchor="middle" x="507.7958" y="-158.3" font-family="Times-Roman" font-size="14.00" fill="#000000">routing&#45;core</text>
</g>
<!-- R.A.T.M.A.N.&#45;&gt;routing&#45;core -->
<g id="edge4" class="edge">
<title>R.A.T.M.A.N.&#45;&gt;routing&#45;core</title>
<path fill="none" stroke="#000000" d="M353.5228,-219.256C383.8621,-207.996 425.8478,-192.4137 458.3597,-180.3474"/>
<polygon fill="#000000" stroke="#000000" points="459.9647,-183.4851 468.122,-176.7243 457.5291,-176.9225 459.9647,-183.4851"/>
</g>
<!-- persistence -->
<g id="node6" class="node">
<title>persistence</title>
<ellipse fill="none" stroke="#000000" cx="175.7958" cy="-162" rx="64.189" ry="18"/>
<text text-anchor="middle" x="175.7958" y="-158.3" font-family="Times-Roman" font-size="14.00" fill="#000000">persistence</text>
</g>
<!-- R.A.T.M.A.N.&#45;&gt;persistence -->
<g id="edge5" class="edge">
<title>R.A.T.M.A.N.&#45;&gt;persistence</title>
<path fill="none" stroke="#000000" d="M282.826,-217.8418C263.0282,-207.5125 237.1559,-194.0139 215.8081,-182.8759"/>
<polygon fill="#000000" stroke="#000000" points="217.1472,-179.6269 206.6624,-178.1043 213.9092,-185.833 217.1472,-179.6269"/>
</g>
<!-- common -->
<g id="node7" class="node">
<title>common</title>
<ellipse fill="none" stroke="#000000" cx="386.7958" cy="-18" rx="51.9908" ry="18"/>
<text text-anchor="middle" x="386.7958" y="-14.3" font-family="Times-Roman" font-size="14.00" fill="#000000">common</text>
</g>
<!-- identity&#45;&gt;common -->
<g id="edge11" class="edge">
<title>identity&#45;&gt;common</title>
<path fill="none" stroke="#000000" d="M331.0958,-72.937C340.392,-63.7682 352.0109,-52.3084 362.2283,-42.2311"/>
<polygon fill="#000000" stroke="#000000" points="364.7051,-44.7041 369.3671,-35.19 359.7896,-39.7203 364.7051,-44.7041"/>
</g>
<!-- netmod&#45;&gt;identity -->
<g id="edge6" class="edge">
<title>netmod&#45;&gt;identity</title>
<path fill="none" stroke="#000000" d="M82.2461,-150.2486C89.0447,-148.0962 96.1235,-145.9242 102.7958,-144 157.9579,-128.0918 221.9067,-112.0591 264.8169,-101.6452"/>
<polygon fill="#000000" stroke="#000000" points="265.8187,-105.004 274.7161,-99.2519 264.1736,-98.2 265.8187,-105.004"/>
</g>
<!-- netmod&#45;&gt;common -->
<g id="edge12" class="edge">
<title>netmod&#45;&gt;common</title>
<path fill="none" stroke="#000000" d="M78.4769,-148.5821C139.9604,-122.5421 275.4694,-65.15 344.5345,-35.8989"/>
<polygon fill="#000000" stroke="#000000" points="345.9811,-39.0873 353.8243,-31.9644 343.2511,-32.6416 345.9811,-39.0873"/>
</g>
<!-- diagnostics&#45;&gt;identity -->
<g id="edge7" class="edge">
<title>diagnostics&#45;&gt;identity</title>
<path fill="none" stroke="#000000" d="M347.6722,-144.2022C342.3863,-135.7448 335.9636,-125.4685 330.1377,-116.147"/>
<polygon fill="#000000" stroke="#000000" points="333.0595,-114.218 324.7915,-107.593 327.1235,-117.928 333.0595,-114.218"/>
</g>
<!-- diagnostics&#45;&gt;common -->
<g id="edge10" class="edge">
<title>diagnostics&#45;&gt;common</title>
<path fill="none" stroke="#000000" d="M362.3421,-143.7623C367.1389,-119.0928 375.7398,-74.8598 381.3566,-45.9731"/>
<polygon fill="#000000" stroke="#000000" points="384.8053,-46.5738 383.2784,-36.0896 377.934,-45.2377 384.8053,-46.5738"/>
</g>
<!-- routing&#45;core&#45;&gt;identity -->
<g id="edge8" class="edge">
<title>routing&#45;core&#45;&gt;identity</title>
<path fill="none" stroke="#000000" d="M468.0689,-147.256C435.5809,-135.1986 389.7385,-118.1849 356.4745,-105.8395"/>
<polygon fill="#000000" stroke="#000000" points="357.6094,-102.5275 347.0164,-102.3293 355.1737,-109.0901 357.6094,-102.5275"/>
</g>
<!-- routing&#45;core&#45;&gt;common -->
<g id="edge9" class="edge">
<title>routing&#45;core&#45;&gt;common</title>
<path fill="none" stroke="#000000" d="M492.9589,-144.3428C471.6161,-118.9431 432.1472,-71.9719 407.8113,-43.0101"/>
<polygon fill="#000000" stroke="#000000" points="410.489,-40.7563 401.3762,-35.3519 405.1298,-45.2595 410.489,-40.7563"/>
</g>
<!-- libqaul -->
<g id="node8" class="node">
<title>libqaul</title>
<ellipse fill="none" stroke="#000000" cx="603.7958" cy="-306" rx="41.6928" ry="18"/>
<text text-anchor="middle" x="603.7958" y="-302.3" font-family="Times-Roman" font-size="14.00" fill="#000000">libqaul</text>
</g>
<!-- libqaul&#45;&gt;R.A.T.M.A.N. -->
<g id="edge13" class="edge">
<title>libqaul&#45;&gt;R.A.T.M.A.N.</title>
<path fill="none" stroke="#000000" d="M567.6535,-297.0267C518.8527,-284.9107 431.2844,-263.1696 372.8516,-248.6621"/>
<polygon fill="#000000" stroke="#000000" points="373.5648,-245.233 363.016,-246.2202 371.878,-252.0267 373.5648,-245.233"/>
</g>
<!-- libqaul&#45;&gt;common -->
<g id="edge15" class="edge">
<title>libqaul&#45;&gt;common</title>
<path fill="none" stroke="#000000" d="M606.4185,-287.8346C610.0427,-256.0291 613.2438,-189.334 584.7958,-144 549.9179,-88.4193 480.5648,-52.9045 433.9147,-34.2051"/>
<polygon fill="#000000" stroke="#000000" points="434.9137,-30.8381 424.3252,-30.4689 432.3724,-37.3605 434.9137,-30.8381"/>
</g>
<!-- platform -->
<g id="node9" class="node">
<title>platform</title>
<ellipse fill="none" stroke="#000000" cx="682.7958" cy="-234" rx="50.8918" ry="18"/>
<text text-anchor="middle" x="682.7958" y="-230.3" font-family="Times-Roman" font-size="14.00" fill="#000000">platform</text>
</g>
<!-- libqaul&#45;&gt;platform -->
<g id="edge14" class="edge">
<title>libqaul&#45;&gt;platform</title>
<path fill="none" stroke="#000000" d="M621.7222,-289.6621C632.0789,-280.223 645.2899,-268.1826 656.774,-257.7161"/>
<polygon fill="#000000" stroke="#000000" points="659.3589,-260.0958 664.3922,-250.7729 654.6437,-254.9221 659.3589,-260.0958"/>
</g>
<!-- qaul&#45;http -->
<g id="node10" class="node">
<title>qaul&#45;http</title>
<ellipse fill="none" stroke="#000000" cx="603.7958" cy="-378" rx="52.7911" ry="18"/>
<text text-anchor="middle" x="603.7958" y="-374.3" font-family="Times-Roman" font-size="14.00" fill="#000000">qaul&#45;http</text>
</g>
<!-- qaul&#45;http&#45;&gt;libqaul -->
<g id="edge16" class="edge">
<title>qaul&#45;http&#45;&gt;libqaul</title>
<path fill="none" stroke="#000000" d="M603.7958,-359.8314C603.7958,-352.131 603.7958,-342.9743 603.7958,-334.4166"/>
<polygon fill="#000000" stroke="#000000" points="607.2959,-334.4132 603.7958,-324.4133 600.2959,-334.4133 607.2959,-334.4132"/>
</g>
</g>
</svg>
