<?xml version="1.0" encoding="UTF-8" standalone="no"?>
<!DOCTYPE svg PUBLIC "-//W3C//DTD SVG 1.1//EN"
 "http://www.w3.org/Graphics/SVG/1.1/DTD/svg11.dtd">
<!-- Generated by graphviz version 2.40.1 (0)
 -->
<!-- Title: %3 Pages: 1 -->
<svg width="757pt" height="404pt"
 viewBox="0.00 0.00 757.18 404.00" xmlns="http://www.w3.org/2000/svg" xmlns:xlink="http://www.w3.org/1999/xlink">
<g id="graph0" class="graph" transform="scale(1 1) rotate(0) translate(4 400)">
<title>%3</title>
<polygon fill="#ffffff" stroke="transparent" points="-4,4 -4,-400 753.1759,-400 753.1759,4 -4,4"/>
<!-- R.A.T.M.A.N. -->
<g id="node1" class="node">
<title>R.A.T.M.A.N.</title>
<ellipse fill="none" stroke="#000000" cx="337.4804" cy="-234" rx="66.8882" ry="18"/>
<text text-anchor="middle" x="337.4804" y="-230.3" font-family="Times-Roman" font-size="14.00" fill="#000000">R.A.T.M.A.N.</text>
</g>
<!-- identity -->
<g id="node2" class="node">
<title>identity</title>
<ellipse fill="none" stroke="#000000" cx="292.4804" cy="-90" rx="45.4919" ry="18"/>
<text text-anchor="middle" x="292.4804" y="-86.3" font-family="Times-Roman" font-size="14.00" fill="#000000">identity</text>
</g>
<!-- R.A.T.M.A.N.&#45;&gt;identity -->
<g id="edge1" class="edge">
<title>R.A.T.M.A.N.&#45;&gt;identity</title>
<path fill="none" stroke="#000000" d="M286.8781,-222.1315C248.736,-212.0413 201.0831,-196.5842 189.4804,-180 180.3084,-166.8899 181.2,-157.6907 189.4804,-144 201.4778,-124.164 223.4323,-111.2586 243.9991,-103.0572"/>
<polygon fill="#000000" stroke="#000000" points="245.4517,-106.2519 253.6211,-99.5057 243.0278,-99.685 245.4517,-106.2519"/>
</g>
<!-- netmod -->
<g id="node3" class="node">
<title>netmod</title>
<ellipse fill="none" stroke="#000000" cx="544.4804" cy="-162" rx="46.5926" ry="18"/>
<text text-anchor="middle" x="544.4804" y="-158.3" font-family="Times-Roman" font-size="14.00" fill="#000000">netmod</text>
</g>
<!-- R.A.T.M.A.N.&#45;&gt;netmod -->
<g id="edge2" class="edge">
<title>R.A.T.M.A.N.&#45;&gt;netmod</title>
<path fill="none" stroke="#000000" d="M378.8725,-219.6028C413.9221,-207.4116 464.0509,-189.9755 499.9612,-177.485"/>
<polygon fill="#000000" stroke="#000000" points="501.3932,-180.6926 509.6883,-174.1016 499.0935,-174.0811 501.3932,-180.6926"/>
</g>
<!-- diagnostics -->
<g id="node4" class="node">
<title>diagnostics</title>
<ellipse fill="none" stroke="#000000" cx="79.4804" cy="-162" rx="63.0888" ry="18"/>
<text text-anchor="middle" x="79.4804" y="-158.3" font-family="Times-Roman" font-size="14.00" fill="#000000">diagnostics</text>
</g>
<!-- R.A.T.M.A.N.&#45;&gt;diagnostics -->
<g id="edge3" class="edge">
<title>R.A.T.M.A.N.&#45;&gt;diagnostics</title>
<path fill="none" stroke="#000000" d="M290.7586,-220.9613C246.9261,-208.729 181.3421,-190.4265 134.889,-177.4629"/>
<polygon fill="#000000" stroke="#000000" points="135.5614,-174.0168 124.9886,-174.7 133.6798,-180.7592 135.5614,-174.0168"/>
</g>
<!-- routing&#45;core -->
<g id="node5" class="node">
<title>routing&#45;core</title>
<ellipse fill="none" stroke="#000000" cx="412.4804" cy="-162" rx="67.6881" ry="18"/>
<text text-anchor="middle" x="412.4804" y="-158.3" font-family="Times-Roman" font-size="14.00" fill="#000000">routing&#45;core</text>
</g>
<!-- R.A.T.M.A.N.&#45;&gt;routing&#45;core -->
<g id="edge4" class="edge">
<title>R.A.T.M.A.N.&#45;&gt;routing&#45;core</title>
<path fill="none" stroke="#000000" d="M355.6359,-216.5708C364.9634,-207.6164 376.4898,-196.551 386.7199,-186.7302"/>
<polygon fill="#000000" stroke="#000000" points="389.4423,-188.9685 394.2323,-179.5182 384.5945,-183.9187 389.4423,-188.9685"/>
</g>
<!-- persistence -->
<g id="node6" class="node">
<title>persistence</title>
<ellipse fill="none" stroke="#000000" cx="262.4804" cy="-162" rx="64.189" ry="18"/>
<text text-anchor="middle" x="262.4804" y="-158.3" font-family="Times-Roman" font-size="14.00" fill="#000000">persistence</text>
</g>
<!-- R.A.T.M.A.N.&#45;&gt;persistence -->
<g id="edge5" class="edge">
<title>R.A.T.M.A.N.&#45;&gt;persistence</title>
<path fill="none" stroke="#000000" d="M319.325,-216.5708C309.9975,-207.6164 298.4711,-196.551 288.241,-186.7302"/>
<polygon fill="#000000" stroke="#000000" points="290.3664,-183.9187 280.7286,-179.5182 285.5186,-188.9685 290.3664,-183.9187"/>
</g>
<!-- common -->
<g id="node7" class="node">
<title>common</title>
<ellipse fill="none" stroke="#000000" cx="412.4804" cy="-18" rx="51.9908" ry="18"/>
<text text-anchor="middle" x="412.4804" y="-14.3" font-family="Times-Roman" font-size="14.00" fill="#000000">common</text>
</g>
<!-- identity&#45;&gt;common -->
<g id="edge11" class="edge">
<title>identity&#45;&gt;common</title>
<path fill="none" stroke="#000000" d="M317.6364,-74.9064C334.9608,-64.5118 358.2163,-50.5585 377.3632,-39.0703"/>
<polygon fill="#000000" stroke="#000000" points="379.337,-41.9678 386.1111,-33.8216 375.7354,-35.9654 379.337,-41.9678"/>
</g>
<!-- netmod&#45;&gt;identity -->
<g id="edge6" class="edge">
<title>netmod&#45;&gt;identity</title>
<path fill="none" stroke="#000000" d="M509.0569,-150.1259C502.5626,-148.029 495.8309,-145.9083 489.4804,-144 438.9157,-128.8054 380.5344,-113.0201 340.5306,-102.4703"/>
<polygon fill="#000000" stroke="#000000" points="341.3334,-99.0625 330.7721,-99.9046 339.5534,-105.8324 341.3334,-99.0625"/>
</g>
<!-- netmod&#45;&gt;common -->
<g id="edge12" class="edge">
<title>netmod&#45;&gt;common</title>
<path fill="none" stroke="#000000" d="M528.82,-144.9158C505.7234,-119.7196 462.3774,-72.4331 435.6113,-43.2337"/>
<polygon fill="#000000" stroke="#000000" points="437.8695,-40.5175 428.5322,-35.511 432.7094,-45.2476 437.8695,-40.5175"/>
</g>
<!-- diagnostics&#45;&gt;identity -->
<g id="edge7" class="edge">
<title>diagnostics&#45;&gt;identity</title>
<path fill="none" stroke="#000000" d="M120.297,-148.2029C156.89,-135.8334 210.4565,-117.7264 248.1017,-105.0013"/>
<polygon fill="#000000" stroke="#000000" points="249.4363,-108.2448 257.7889,-101.7267 247.1947,-101.6134 249.4363,-108.2448"/>
</g>
<!-- diagnostics&#45;&gt;common -->
<g id="edge10" class="edge">
<title>diagnostics&#45;&gt;common</title>
<path fill="none" stroke="#000000" d="M104.7687,-145.4245C135.4258,-125.8709 189.1289,-93.3323 238.4804,-72 278.1178,-54.8667 324.9646,-40.6498 360.0582,-31.1115"/>
<polygon fill="#000000" stroke="#000000" points="361.3347,-34.3931 370.089,-28.4253 359.5239,-27.6313 361.3347,-34.3931"/>
</g>
<!-- routing&#45;core&#45;&gt;identity -->
<g id="edge8" class="edge">
<title>routing&#45;core&#45;&gt;identity</title>
<path fill="none" stroke="#000000" d="M384.95,-145.4817C367.5863,-135.0635 345.0308,-121.5302 326.5436,-110.4379"/>
<polygon fill="#000000" stroke="#000000" points="328.2111,-107.3567 317.8354,-105.213 324.6096,-113.3592 328.2111,-107.3567"/>
</g>
<!-- routing&#45;core&#45;&gt;common -->
<g id="edge9" class="edge">
<title>routing&#45;core&#45;&gt;common</title>
<path fill="none" stroke="#000000" d="M412.4804,-143.7623C412.4804,-119.201 412.4804,-75.2474 412.4804,-46.3541"/>
<polygon fill="#000000" stroke="#000000" points="415.9805,-46.0896 412.4804,-36.0896 408.9805,-46.0897 415.9805,-46.0896"/>
</g>
<!-- libqaul -->
<g id="node8" class="node">
<title>libqaul</title>
<ellipse fill="none" stroke="#000000" cx="515.4804" cy="-306" rx="41.6928" ry="18"/>
<text text-anchor="middle" x="515.4804" y="-302.3" font-family="Times-Roman" font-size="14.00" fill="#000000">libqaul</text>
</g>
<!-- libqaul&#45;&gt;R.A.T.M.A.N. -->
<g id="edge13" class="edge">
<title>libqaul&#45;&gt;R.A.T.M.A.N.</title>
<path fill="none" stroke="#000000" d="M484.8812,-293.6228C457.2262,-282.4365 416.1021,-265.802 384.3129,-252.9435"/>
<polygon fill="#000000" stroke="#000000" points="385.355,-249.5895 374.7722,-249.0843 382.7301,-256.0788 385.355,-249.5895"/>
</g>
<!-- libqaul&#45;&gt;identity -->
<g id="edge16" class="edge">
<title>libqaul&#45;&gt;identity</title>
<path fill="none" stroke="#000000" d="M474.6099,-302.3229C364.2099,-291.4494 64.4673,-255.3859 7.4804,-180 -2.168,-167.2365 -2.726,-156.3219 7.4804,-144 36.0524,-109.506 162.5229,-96.8762 237.0457,-92.3802"/>
<polygon fill="#000000" stroke="#000000" points="237.4175,-95.8647 247.2009,-91.7983 237.017,-88.8762 237.4175,-95.8647"/>
</g>
<!-- libqaul&#45;&gt;common -->
<g id="edge15" class="edge">
<title>libqaul&#45;&gt;common</title>
<path fill="none" stroke="#000000" d="M535.1814,-289.8653C568.3076,-260.6888 628.8902,-197.2409 600.4804,-144 570.8639,-88.4976 504.754,-53.1342 459.3844,-34.4293"/>
<polygon fill="#000000" stroke="#000000" points="460.623,-31.1552 450.0383,-30.6895 458.0223,-37.6542 460.623,-31.1552"/>
</g>
<!-- platform -->
<g id="node9" class="node">
<title>platform</title>
<ellipse fill="none" stroke="#000000" cx="698.4804" cy="-234" rx="50.8918" ry="18"/>
<text text-anchor="middle" x="698.4804" y="-230.3" font-family="Times-Roman" font-size="14.00" fill="#000000">platform</text>
</g>
<!-- libqaul&#45;&gt;platform -->
<g id="edge14" class="edge">
<title>libqaul&#45;&gt;platform</title>
<path fill="none" stroke="#000000" d="M546.5239,-293.7862C576.3167,-282.0644 621.5875,-264.253 654.9711,-251.1184"/>
<polygon fill="#000000" stroke="#000000" points="656.4592,-254.2942 664.4834,-247.3759 653.8963,-247.7802 656.4592,-254.2942"/>
</g>
<!-- qaul&#45;http -->
<g id="node10" class="node">
<title>qaul&#45;http</title>
<ellipse fill="none" stroke="#000000" cx="515.4804" cy="-378" rx="52.7911" ry="18"/>
<text text-anchor="middle" x="515.4804" y="-374.3" font-family="Times-Roman" font-size="14.00" fill="#000000">qaul&#45;http</text>
</g>
<!-- qaul&#45;http&#45;&gt;libqaul -->
<g id="edge17" class="edge">
<title>qaul&#45;http&#45;&gt;libqaul</title>
<path fill="none" stroke="#000000" d="M515.4804,-359.8314C515.4804,-352.131 515.4804,-342.9743 515.4804,-334.4166"/>
<polygon fill="#000000" stroke="#000000" points="518.9805,-334.4132 515.4804,-324.4133 511.9805,-334.4133 518.9805,-334.4132"/>
</g>
</g>
</svg>
