<?xml version="1.0" encoding="UTF-8" standalone="no"?>
<!DOCTYPE svg PUBLIC "-//W3C//DTD SVG 1.1//EN"
 "http://www.w3.org/Graphics/SVG/1.1/DTD/svg11.dtd">
<!-- Generated by graphviz version 2.40.1 (0)
 -->
<!-- Title: %3 Pages: 1 -->
<svg width="875pt" height="332pt"
 viewBox="0.00 0.00 874.98 332.00" xmlns="http://www.w3.org/2000/svg" xmlns:xlink="http://www.w3.org/1999/xlink">
<g id="graph0" class="graph" transform="scale(1 1) rotate(0) translate(4 328)">
<title>%3</title>
<polygon fill="#ffffff" stroke="transparent" points="-4,4 -4,-328 870.9848,-328 870.9848,4 -4,4"/>
<!-- R.A.T.M.A.N. -->
<g id="node1" class="node">
<title>R.A.T.M.A.N.</title>
<ellipse fill="none" stroke="#000000" cx="268.3908" cy="-162" rx="66.8882" ry="18"/>
<text text-anchor="middle" x="268.3908" y="-158.3" font-family="Times-Roman" font-size="14.00" fill="#000000">R.A.T.M.A.N.</text>
</g>
<!-- identity -->
<g id="node2" class="node">
<title>identity</title>
<ellipse fill="none" stroke="#000000" cx="193.3908" cy="-18" rx="45.4919" ry="18"/>
<text text-anchor="middle" x="193.3908" y="-14.3" font-family="Times-Roman" font-size="14.00" fill="#000000">identity</text>
</g>
<!-- R.A.T.M.A.N.&#45;&gt;identity -->
<g id="edge1" class="edge">
<title>R.A.T.M.A.N.&#45;&gt;identity</title>
<path fill="none" stroke="#000000" d="M203.1614,-157.5829C134.5905,-151.4206 33.368,-137.4919 9.3908,-108 -30.1371,-59.3807 71.9201,-35.0526 139.3832,-24.6102"/>
<polygon fill="#000000" stroke="#000000" points="140.0986,-28.0424 149.4754,-23.1104 139.0696,-21.1184 140.0986,-28.0424"/>
</g>
<!-- netmod -->
<g id="node3" class="node">
<title>netmod</title>
<ellipse fill="none" stroke="#000000" cx="65.3908" cy="-90" rx="46.5926" ry="18"/>
<text text-anchor="middle" x="65.3908" y="-86.3" font-family="Times-Roman" font-size="14.00" fill="#000000">netmod</text>
</g>
<!-- R.A.T.M.A.N.&#45;&gt;netmod -->
<g id="edge2" class="edge">
<title>R.A.T.M.A.N.&#45;&gt;netmod</title>
<path fill="none" stroke="#000000" d="M227.7987,-147.6028C193.5321,-135.4491 144.5685,-118.0827 109.3753,-105.6004"/>
<polygon fill="#000000" stroke="#000000" points="110.4325,-102.2618 99.8378,-102.2176 108.0926,-108.8591 110.4325,-102.2618"/>
</g>
<!-- diagnostics -->
<g id="node4" class="node">
<title>diagnostics</title>
<ellipse fill="none" stroke="#000000" cx="193.3908" cy="-90" rx="63.0888" ry="18"/>
<text text-anchor="middle" x="193.3908" y="-86.3" font-family="Times-Roman" font-size="14.00" fill="#000000">diagnostics</text>
</g>
<!-- R.A.T.M.A.N.&#45;&gt;diagnostics -->
<g id="edge3" class="edge">
<title>R.A.T.M.A.N.&#45;&gt;diagnostics</title>
<path fill="none" stroke="#000000" d="M250.2354,-144.5708C240.7467,-135.4616 228.9824,-124.1679 218.6222,-114.2221"/>
<polygon fill="#000000" stroke="#000000" points="221.0168,-111.6692 211.3791,-107.2687 216.1691,-116.7189 221.0168,-111.6692"/>
</g>
<!-- routing&#45;core -->
<g id="node5" class="node">
<title>routing&#45;core</title>
<ellipse fill="none" stroke="#000000" cx="342.3908" cy="-90" rx="67.6881" ry="18"/>
<text text-anchor="middle" x="342.3908" y="-86.3" font-family="Times-Roman" font-size="14.00" fill="#000000">routing&#45;core</text>
</g>
<!-- R.A.T.M.A.N.&#45;&gt;routing&#45;core -->
<g id="edge4" class="edge">
<title>R.A.T.M.A.N.&#45;&gt;routing&#45;core</title>
<path fill="none" stroke="#000000" d="M286.3042,-144.5708C295.5074,-135.6164 306.8801,-124.551 316.9737,-114.7302"/>
<polygon fill="#000000" stroke="#000000" points="319.6595,-117.0004 324.386,-107.5182 314.778,-111.9833 319.6595,-117.0004"/>
</g>
<!-- persistence -->
<g id="node6" class="node">
<title>persistence</title>
<ellipse fill="none" stroke="#000000" cx="492.3908" cy="-90" rx="64.189" ry="18"/>
<text text-anchor="middle" x="492.3908" y="-86.3" font-family="Times-Roman" font-size="14.00" fill="#000000">persistence</text>
</g>
<!-- R.A.T.M.A.N.&#45;&gt;persistence -->
<g id="edge5" class="edge">
<title>R.A.T.M.A.N.&#45;&gt;persistence</title>
<path fill="none" stroke="#000000" d="M311.5803,-148.1177C348.3812,-136.2888 401.3645,-119.2585 440.4691,-106.6891"/>
<polygon fill="#000000" stroke="#000000" points="441.6444,-109.9878 450.0936,-103.5955 439.5023,-103.3236 441.6444,-109.9878"/>
</g>
<!-- netmod&#45;&gt;identity -->
<g id="edge6" class="edge">
<title>netmod&#45;&gt;identity</title>
<path fill="none" stroke="#000000" d="M91.9125,-75.0816C111.0487,-64.3175 137.087,-49.6709 157.9964,-37.9094"/>
<polygon fill="#000000" stroke="#000000" points="159.9033,-40.8525 166.9031,-32.8993 156.4714,-34.7515 159.9033,-40.8525"/>
</g>
<!-- diagnostics&#45;&gt;identity -->
<g id="edge7" class="edge">
<title>diagnostics&#45;&gt;identity</title>
<path fill="none" stroke="#000000" d="M193.3908,-71.8314C193.3908,-64.131 193.3908,-54.9743 193.3908,-46.4166"/>
<polygon fill="#000000" stroke="#000000" points="196.8909,-46.4132 193.3908,-36.4133 189.8909,-46.4133 196.8909,-46.4132"/>
</g>
<!-- routing&#45;core&#45;&gt;identity -->
<g id="edge8" class="edge">
<title>routing&#45;core&#45;&gt;identity</title>
<path fill="none" stroke="#000000" d="M309.6922,-74.1993C286.7018,-63.0898 255.8588,-48.1859 231.7122,-36.5177"/>
<polygon fill="#000000" stroke="#000000" points="233.0111,-33.2582 222.4843,-32.0586 229.9654,-39.5609 233.0111,-33.2582"/>
</g>
<!-- libqaul -->
<g id="node7" class="node">
<title>libqaul</title>
<ellipse fill="none" stroke="#000000" cx="623.3908" cy="-234" rx="41.6928" ry="18"/>
<text text-anchor="middle" x="623.3908" y="-230.3" font-family="Times-Roman" font-size="14.00" fill="#000000">libqaul</text>
</g>
<!-- libqaul&#45;&gt;R.A.T.M.A.N. -->
<g id="edge9" class="edge">
<title>libqaul&#45;&gt;R.A.T.M.A.N.</title>
<path fill="none" stroke="#000000" d="M585.3996,-226.2947C524.8394,-214.0121 405.7487,-189.8585 332.0199,-174.905"/>
<polygon fill="#000000" stroke="#000000" points="332.4245,-171.4159 321.9283,-172.8583 331.0331,-178.2762 332.4245,-171.4159"/>
</g>
<!-- libqaul&#45;&gt;identity -->
<g id="edge12" class="edge">
<title>libqaul&#45;&gt;identity</title>
<path fill="none" stroke="#000000" d="M616.6503,-216.027C612.7368,-205.536 607.7368,-192.036 603.3908,-180 586.1094,-132.1399 604.6899,-104.3237 565.3908,-72 518.1942,-33.1805 340.9599,-22.2588 249.211,-19.1926"/>
<polygon fill="#000000" stroke="#000000" points="249.1013,-15.6875 238.9964,-18.8719 248.8816,-22.6841 249.1013,-15.6875"/>
</g>
<!-- platform -->
<g id="node8" class="node">
<title>platform</title>
<ellipse fill="none" stroke="#000000" cx="663.3908" cy="-162" rx="50.8918" ry="18"/>
<text text-anchor="middle" x="663.3908" y="-158.3" font-family="Times-Roman" font-size="14.00" fill="#000000">platform</text>
</g>
<!-- libqaul&#45;&gt;platform -->
<g id="edge10" class="edge">
<title>libqaul&#45;&gt;platform</title>
<path fill="none" stroke="#000000" d="M633.2785,-216.2022C637.8939,-207.8944 643.4844,-197.8316 648.5893,-188.6427"/>
<polygon fill="#000000" stroke="#000000" points="651.6814,-190.2839 653.4783,-179.8425 645.5623,-186.8844 651.6814,-190.2839"/>
</g>
<!-- qaul&#45;service -->
<g id="node9" class="node">
<title>qaul&#45;service</title>
<ellipse fill="none" stroke="#000000" cx="799.3908" cy="-162" rx="67.6881" ry="18"/>
<text text-anchor="middle" x="799.3908" y="-158.3" font-family="Times-Roman" font-size="14.00" fill="#000000">qaul&#45;service</text>
</g>
<!-- libqaul&#45;&gt;qaul&#45;service -->
<g id="edge11" class="edge">
<title>libqaul&#45;&gt;qaul&#45;service</title>
<path fill="none" stroke="#000000" d="M653.6463,-221.6228C680.9015,-210.4729 721.3879,-193.9103 752.7772,-181.0692"/>
<polygon fill="#000000" stroke="#000000" points="754.2717,-184.2395 762.2019,-177.2137 751.6212,-177.7606 754.2717,-184.2395"/>
</g>
<!-- qaul&#45;http -->
<g id="node10" class="node">
<title>qaul&#45;http</title>
<ellipse fill="none" stroke="#000000" cx="623.3908" cy="-306" rx="52.7911" ry="18"/>
<text text-anchor="middle" x="623.3908" y="-302.3" font-family="Times-Roman" font-size="14.00" fill="#000000">qaul&#45;http</text>
</g>
<!-- qaul&#45;http&#45;&gt;libqaul -->
<g id="edge13" class="edge">
<title>qaul&#45;http&#45;&gt;libqaul</title>
<path fill="none" stroke="#000000" d="M623.3908,-287.8314C623.3908,-280.131 623.3908,-270.9743 623.3908,-262.4166"/>
<polygon fill="#000000" stroke="#000000" points="626.8909,-262.4132 623.3908,-252.4133 619.8909,-262.4133 626.8909,-262.4132"/>
</g>
</g>
</svg>
