<svg width="35" xmlns="http://www.w3.org/2000/svg" height="35" id="screenshot-5cd73327-19fd-80a8-8007-c34a36ed30b8" viewBox="0 0 35 35" xmlns:xlink="http://www.w3.org/1999/xlink" fill="none" version="1.1"><g id="shape-5cd73327-19fd-80a8-8007-c34a36ed30b8"><g class="fills" id="fills-5cd73327-19fd-80a8-8007-c34a36ed30b8"><path d="M17.50360107421875,35.0003662109375C7.85076904296875,35.0003662109375,-0.00006103515625,27.1595458984375,-0.00006103515625,17.5062255859375C-0.00006103515625,7.8514404296875,7.85076904296875,0.0008544921875,17.50360107421875,0.0008544921875C27.15716552734375,0.0008544921875,34.99969482421875,7.8514404296875,34.99969482421875,17.5062255859375C34.99969482421875,27.1595458984375,27.15716552734375,35.0003662109375,17.50360107421875,35.0003662109375ZM17.50360107421875,32.9049072265625C26.02386474609375,32.9049072265625,32.90545654296875,26.0255126953125,32.90545654296875,17.5062255859375C32.90545654296875,8.9859619140625,26.02386474609375,2.0943603515625,17.50360107421875,2.0943603515625C8.98431396484375,2.0943603515625,2.09710693359375,8.9859619140625,2.09710693359375,17.5062255859375C2.09710693359375,26.0255126953125,8.98431396484375,32.9049072265625,17.50360107421875,32.9049072265625ZM5.99676513671875,21.3514404296875L17.50140380859375,9.8446044921875L29.00604248046875,21.3514404296875L26.02703857421875,21.3514404296875L17.49285888671875,12.8165283203125L8.95941162109375,21.3514404296875Z" style="vector-effect: none; baseline-shift: baseline; overflow: visible; paint-order: markers stroke; stroke-miterlimit: 5.4; display: inline; stop-color: rgb(0, 0, 0); stroke-linecap: square; fill: rgb(153, 153, 153);"/></g></g></svg>