<svg width="35" xmlns="http://www.w3.org/2000/svg" height="35" id="screenshot-d5198585-ca1c-80e1-8007-d48567199481" viewBox="0 0 35 35" xmlns:xlink="http://www.w3.org/1999/xlink" fill="none" version="1.1"><g id="shape-d5198585-ca1c-80e1-8007-d48567199481"><g class="fills" id="fills-d5198585-ca1c-80e1-8007-d48567199481"><path d="M17.503673553466797,-0.0003883905301336199C7.850597858428955,-0.0003883905301336199,0.00001192370655189734,7.8404316902160645,0.00001192370655189734,17.493751525878906C0.00001192370655189734,27.148536682128906,7.850597858428955,34.999244689941406,17.503673553466797,34.999244689941406C27.157238006591797,34.999244689941406,34.9997673034668,27.148536682128906,34.9997673034668,17.493751525878906C34.9997673034668,7.8404316902160645,27.157238006591797,-0.0003883905301336199,17.503673553466797,-0.0003883905301336199ZM17.503673553466797,2.0951926708221436C26.023937225341797,2.0951926708221436,32.9052848815918,8.974465370178223,32.9052848815918,17.493751525878906C32.9052848815918,26.014137268066406,26.023937225341797,32.905738830566406,17.503673553466797,32.905738830566406C8.984387397766113,32.905738830566406,2.097179889678955,26.014137268066406,2.097179889678955,17.493751525878906C2.097179889678955,8.974465370178223,8.984387397766113,2.0951926708221436,17.503673553466797,2.0951926708221436ZM5.996838092803955,13.648537635803223L17.501476287841797,25.155494689941406L29.006114959716797,13.648537635803223L26.026866912841797,13.648537635803223L17.492931365966797,22.183570861816406L8.959485054016113,13.648537635803223Z" style="vector-effect: none; baseline-shift: baseline; overflow: visible; paint-order: markers stroke; stroke-miterlimit: 5.4; display: inline; stop-color: rgb(0, 0, 0); stroke-linecap: square; fill: rgb(153, 153, 153);"/></g></g></svg>