<svg width="25" xmlns="http://www.w3.org/2000/svg" height="25" id="screenshot-5cd73327-19fd-80a8-8007-c34a36ed30c3" viewBox="0 0 25 25" xmlns:xlink="http://www.w3.org/1999/xlink" fill="none" version="1.1"><g id="shape-5cd73327-19fd-80a8-8007-c34a36ed30c3"><g class="fills" id="fills-5cd73327-19fd-80a8-8007-c34a36ed30c3"><path d="M12.49993896484375,-0.0003662109375C5.60516357421875,-0.0003662109375,-0.00018310546875,5.6038818359375,-0.00018310546875,12.4964599609375C-0.00018310546875,19.3892822265625,5.60516357421875,25.0003662109375,12.49993896484375,25.0003662109375C19.39471435546875,25.0003662109375,24.99993896484375,19.3892822265625,24.99993896484375,12.4964599609375C24.99993896484375,5.6038818359375,19.39471435546875,-0.0003662109375,12.49993896484375,-0.0003662109375ZM12.49993896484375,1.7110595703125C18.46844482421875,1.7110595703125,23.28704833984375,6.5301513671875,23.28704833984375,12.4964599609375C23.28704833984375,15.1888427734375,22.30487060546875,17.6461181640625,20.67962646484375,19.5330810546875L5.52923583984375,4.2579345703125C7.40765380859375,2.6693115234375,9.84027099609375,1.7110595703125,12.49993896484375,1.7110595703125ZM4.38665771484375,5.3792724609375L19.55267333984375,20.6624755859375C17.66302490234375,22.2940673828125,15.19989013671875,23.2791748046875,12.49993896484375,23.2791748046875C6.53167724609375,23.2791748046875,1.71270751953125,18.4627685546875,1.71270751953125,12.4964599609375C1.71270751953125,9.7669677734375,2.72113037109375,7.2762451171875,4.38665771484375,5.3792724609375Z" style="vector-effect: none; baseline-shift: baseline; overflow: visible; paint-order: markers stroke; stroke-width: 1.00005; stroke-linejoin: bevel; stroke-miterlimit: 5.4; display: inline; stop-color: rgb(0, 0, 0); stroke-linecap: square; fill: rgb(153, 153, 153); fill-opacity: 1;"/></g></g></svg>