<svg width="22" xmlns="http://www.w3.org/2000/svg" height="25" viewBox="0 0 22 25" fill="none"><path d="M18.8441 0C18.4672 0 18.091.1416 17.8079.4216L16.2342 1.9788 7.45624 10.6643V14.3894H11.2216L19.9976 5.70337 21.5788 4.14526C22.145 3.58594 22.138 2.65356 21.571 2.09277L19.8823.42163C19.5992.1416 19.221 0 18.8441 0ZM18.8441 1.45483 20.527 3.12036 19.7232 3.91626 18.0479 2.25073 18.8441 1.45483ZM.000061 2.10986V25.0005H18.9952V9.38379H17.5231V23.542H1.47955V3.56738H13.0093V2.10986H.000061ZM16.2342 4.04517 17.9173 5.70337 10.6132 12.9312H8.92999V11.2676L16.2342 4.04517Z" fill="#999999"/></svg>
