<svg width="25" xmlns="http://www.w3.org/2000/svg" height="25" id="screenshot-5cd73327-19fd-80a8-8007-c34a36ed30c6" viewBox="0 0 25 25" xmlns:xlink="http://www.w3.org/1999/xlink" fill="none" version="1.1"><g id="shape-5cd73327-19fd-80a8-8007-c34a36ed30c6"><g class="fills" id="fills-5cd73327-19fd-80a8-8007-c34a36ed30c6"><path d="M12.50091552734375,-0.0001220703125C5.60614013671875,-0.0001220703125,-0.00006103515625,5.6043701171875,-0.00006103515625,12.4986572265625C-0.00006103515625,19.3944091796875,5.60614013671875,25.0001220703125,12.50091552734375,25.0001220703125C19.39593505859375,25.0001220703125,24.99993896484375,19.3944091796875,24.99993896484375,12.4986572265625C24.99993896484375,5.6043701171875,19.39593505859375,-0.0001220703125,12.50091552734375,-0.0001220703125ZM12.50091552734375,1.5010986328125C18.58807373046875,1.5010986328125,23.50701904296875,6.4122314453125,23.50701904296875,12.4986572265625C23.50701904296875,18.5860595703125,18.58807373046875,23.5047607421875,12.50091552734375,23.5047607421875C6.41400146484375,23.5047607421875,1.49505615234375,18.5860595703125,1.49505615234375,12.4986572265625C1.49505615234375,6.4122314453125,6.41400146484375,1.5010986328125,12.50091552734375,1.5010986328125ZM11.75164794921875,4.0194091796875L11.75164794921875,6.6514892578125L13.24652099609375,6.6514892578125L13.24652099609375,4.0194091796875ZM11.75164794921875,9.9273681640625L11.75164794921875,20.9842529296875L13.24652099609375,20.9842529296875L13.24652099609375,9.9273681640625Z" style="vector-effect: none; baseline-shift: baseline; overflow: visible; paint-order: markers stroke; stroke-miterlimit: 5.4; display: inline; stop-color: rgb(0, 0, 0); stroke-linecap: square; fill: rgb(153, 153, 153);"/></g></g></svg>