<svg width="31" xmlns="http://www.w3.org/2000/svg" height="31" id="screenshot-d5198585-ca1c-80e1-8007-d48567199483" viewBox="0 0 31 31" xmlns:xlink="http://www.w3.org/1999/xlink" fill="none" version="1.1"><g id="shape-d5198585-ca1c-80e1-8007-d48567199483"><g class="fills" id="fills-d5198585-ca1c-80e1-8007-d48567199483"><path d="M15.503918647766113,0.00019144346879329532C6.953625202178955,0.00019144346879329532,0.00001192370655189734,6.9440388679504395,0.00001192370655189734,15.495430946350098C0.00001192370655189734,24.04547882080078,6.953625202178955,31.00019073486328,15.503918647766113,31.00019073486328C24.053478240966797,31.00019073486328,31.000011444091797,24.04547882080078,31.000011444091797,15.495430946350098C31.000011444091797,6.9440388679504395,24.053478240966797,0.00019144346879329532,15.503918647766113,0.00019144346879329532ZM15.503918647766113,1.8548057079315186C23.049571990966797,1.8548057079315186,29.144786834716797,7.9479451179504395,29.144786834716797,15.495430946350098C29.144786834716797,23.04193878173828,23.049571990966797,29.14447784423828,15.503918647766113,29.14447784423828C7.957531452178955,29.14447784423828,1.857433795928955,23.04193878173828,1.857433795928955,15.495430946350098C1.857433795928955,7.9479451179504395,7.957531452178955,1.8548057079315186,15.503918647766113,1.8548057079315186ZM14.570080757141113,6.6373982429504395L14.570080757141113,14.570870399475098L6.636730670928955,14.570870399475098L6.636730670928955,16.42841339111328L14.570080757141113,16.42841339111328L14.570080757141113,24.36310577392578L16.427745819091797,24.36310577392578L16.427745819091797,16.42841339111328L24.360363006591797,16.42841339111328L24.360363006591797,14.570870399475098L16.427745819091797,14.570870399475098L16.427745819091797,6.6373982429504395Z" style="vector-effect: none; baseline-shift: baseline; overflow: visible; paint-order: markers stroke; stroke-miterlimit: 5.4; display: inline; stop-color: rgb(0, 0, 0); stroke-linecap: square; fill: rgb(153, 153, 153); fill-opacity: 1;"/></g></g></svg>