<svg width="24" xmlns="http://www.w3.org/2000/svg" height="27" id="screenshot-5cd73327-19fd-80a8-8007-c34a36ed30c5" viewBox="0 0 24 27" xmlns:xlink="http://www.w3.org/1999/xlink" fill="none" version="1.1"><g id="shape-5cd73327-19fd-80a8-8007-c34a36ed30c5"><g class="fills" id="fills-5cd73327-19fd-80a8-8007-c34a36ed30c5"><path d="M19.36737060546875,-0.0001220703125C16.81976318359375,-0.0001220703125,14.73455810546875,2.1180419921875,14.73455810546875,4.7156982421875C14.73455810546875,5.3248291015625,14.84881591796875,5.9090576171875,15.05706787109375,6.4444580078125L8.27581787109375,10.6295166015625C7.42767333984375,9.5242919921875,6.10882568359375,8.8084716796875,4.63250732421875,8.8084716796875C2.08514404296875,8.8084716796875,-0.00006103515625,10.9344482421875,-0.00006103515625,13.5318603515625C-0.00006103515625,16.1302490234375,2.08514404296875,18.2581787109375,4.63250732421875,18.2581787109375C6.10028076171875,18.2581787109375,7.41229248046875,17.5518798828125,8.26043701171875,16.4561767578125L14.97503662109375,20.5989990234375C14.97479248046875,20.5989990234375,14.97528076171875,20.5997314453125,14.97503662109375,20.6004638671875C14.77728271484375,21.1241455078125,14.66986083984375,21.6920166015625,14.66986083984375,22.2845458984375C14.66986083984375,24.8817138671875,16.75506591796875,27.0001220703125,19.30242919921875,27.0001220703125C21.85003662109375,27.0001220703125,23.92767333984375,24.8817138671875,23.92767333984375,22.2845458984375C23.92767333984375,19.6861572265625,21.85003662109375,17.5596923828125,19.30242919921875,17.5596923828125C17.85784912109375,17.5596923828125,16.56219482421875,18.2440185546875,15.71087646484375,19.3094482421875L8.97723388671875,15.1534423828125C9.15960693359375,14.6473388671875,9.25750732421875,14.1004638671875,9.25750732421875,13.5318603515625C9.25750732421875,12.9725341796875,9.16204833984375,12.4364013671875,8.98480224609375,11.9368896484375L15.80413818359375,7.7271728515625C16.65594482421875,8.7728271484375,17.93890380859375,9.4403076171875,19.36737060546875,9.4403076171875C21.91473388671875,9.4403076171875,23.99993896484375,7.3135986328125,23.99993896484375,4.7156982421875C23.99993896484375,2.1180419921875,21.91473388671875,-0.0001220703125,19.36737060546875,-0.0001220703125ZM19.36737060546875,1.6234130859375C21.05267333984375,1.6234130859375,22.40032958984375,2.9971923828125,22.40032958984375,4.7156982421875C22.40032958984375,6.4339599609375,21.05267333984375,7.8092041015625,19.36737060546875,7.8092041015625C17.68206787109375,7.8092041015625,16.33416748046875,6.4339599609375,16.33416748046875,4.7156982421875C16.33416748046875,2.9971923828125,17.68206787109375,1.6234130859375,19.36737060546875,1.6234130859375ZM4.63250732421875,10.4393310546875C6.31781005859375,10.4393310546875,7.66546630859375,11.8138427734375,7.66546630859375,13.5318603515625C7.66546630859375,15.2510986328125,6.31781005859375,16.6270751953125,4.63250732421875,16.6270751953125C2.94744873046875,16.6270751953125,1.59197998046875,15.2510986328125,1.59197998046875,13.5318603515625C1.59197998046875,11.8138427734375,2.94744873046875,10.4393310546875,4.63250732421875,10.4393310546875ZM19.30242919921875,19.1907958984375C20.98773193359375,19.1907958984375,22.33538818359375,20.5660400390625,22.33538818359375,22.2845458984375C22.33538818359375,24.0025634765625,20.98773193359375,25.3765869140625,19.30242919921875,25.3765869140625C17.61737060546875,25.3765869140625,16.26190185546875,24.0025634765625,16.26190185546875,22.2845458984375C16.26190185546875,20.5660400390625,17.61737060546875,19.1907958984375,19.30242919921875,19.1907958984375Z" style="vector-effect: none; baseline-shift: baseline; overflow: visible; paint-order: markers stroke; stroke-miterlimit: 5.4; display: inline; stop-color: rgb(0, 0, 0); stroke-linecap: square; fill: rgb(153, 153, 153);"/></g></g></svg>