<svg width="23" xmlns="http://www.w3.org/2000/svg" height="23" id="screenshot-f62b77d5-3a9d-80c5-8007-85f884358539" viewBox="770 -1943.2 23 23" xmlns:xlink="http://www.w3.org/1999/xlink" fill="none" version="1.1"><g id="shape-f62b77d5-3a9d-80c5-8007-85f884358539"><g class="fills" id="fills-f62b77d5-3a9d-80c5-8007-85f884358539"><path d="M781.5101318359375,-1943.2000732421875C776.8579711914062,-1943.2039794921875,772.6617431640625,-1940.4046630859375,770.8785400390625,-1936.107666015625C769.0955810546875,-1931.810791015625,770.0768432617188,-1926.863037109375,773.3652954101562,-1923.572021484375C776.6533813476562,-1920.281005859375,781.6004028320312,-1919.29541015625,785.8988037109375,-1921.074951171875C790.1970825195312,-1922.854248046875,793.000244140625,-1927.048095703125,793.000244140625,-1931.7003173828125C792.99755859375,-1938.0465087890625,787.856201171875,-1943.19189453125,781.5101318359375,-1943.2000732421875L781.5101318359375,-1943.2000732421875M781.480712890625,-1937.281494140625C783.5784301757812,-1935.1748046875,785.0950927734375,-1932.561279296875,785.883056640625,-1929.6947021484375C784.222412109375,-1929.825927734375,782.5930786132812,-1930.2188720703125,781.0551147460938,-1930.85888671875C779.6680297851562,-1931.4906005859375,778.3555908203125,-1932.27490234375,777.1419677734375,-1933.197021484375C777.8063354492188,-1934.077880859375,778.5496826171875,-1934.8966064453125,779.3626708984375,-1935.642822265625C780.0238647460938,-1936.2445068359375,780.7322387695312,-1936.79248046875,781.480712890625,-1937.281494140625L781.480712890625,-1937.281494140625M791.5326538085938,-1931.7003173828125C791.5278930664062,-1931.1429443359375,791.47900390625,-1930.586669921875,791.3859252929688,-1930.0369873046875C790.0765380859375,-1929.7733154296875,788.7447509765625,-1929.6357421875,787.4090576171875,-1929.626220703125C787.3846435546875,-1929.7191162109375,787.3651123046875,-1929.812255859375,787.3406372070312,-1929.900146484375C786.5322265625,-1932.96240234375,784.9602661132812,-1935.76953125,782.77197265625,-1938.05908203125C784.232177734375,-1938.826416015625,785.7769165039062,-1939.420654296875,787.3749389648438,-1939.829833984375C789.98779296875,-1937.946533203125,791.534912109375,-1934.9210205078125,791.5326538085938,-1931.7003173828125L791.5326538085938,-1931.7003173828125M785.628662109375,-1940.84228515625C784.2548828125,-1940.407470703125,782.9302368164062,-1939.83056640625,781.67626953125,-1939.12060546875C780.7317504882812,-1939.9432373046875,779.71337890625,-1940.6766357421875,778.6337890625,-1941.31201171875C780.9481811523438,-1941.998291015625,783.4324340820312,-1941.824462890625,785.628662109375,-1940.82275390625L785.628662109375,-1940.84228515625M776.8924560546875,-1940.597900390625C778.1304931640625,-1939.96044921875,779.2951049804688,-1939.189697265625,780.3654174804688,-1938.298828125C778.67822265625,-1937.1580810546875,777.190673828125,-1935.74658203125,775.9630126953125,-1934.1214599609375C774.8870239257812,-1935.04638671875,773.94677734375,-1936.1181640625,773.1701049804688,-1937.3057861328125C774.1146850585938,-1938.698486328125,775.3948364257812,-1939.83056640625,776.8924560546875,-1940.597900390625L776.8924560546875,-1940.597900390625M772.3924560546875,-1935.8629150390625C773.1854858398438,-1934.780517578125,774.1032104492188,-1933.7955322265625,775.1265869140625,-1932.927978515625C773.9909057617188,-1931.1650390625,773.1237182617188,-1929.242919921875,772.5537719726562,-1927.224365234375C771.187255859375,-1929.9290771484375,771.1279296875,-1933.109130859375,772.3924560546875,-1935.8629150390625L772.3924560546875,-1935.8629150390625M773.6348266601562,-1925.492919921875C774.1334838867188,-1927.792236328125,775.02880859375,-1929.987060546875,776.281005859375,-1931.97900390625C777.5830078125,-1930.996826171875,778.99267578125,-1930.16650390625,780.48291015625,-1929.50390625C781.74951171875,-1928.9703369140625,783.0768432617188,-1928.59423828125,784.4352416992188,-1928.3837890625C781.5936889648438,-1927.187744140625,779.222412109375,-1925.09326171875,777.6848754882812,-1922.421142578125C776.0961303710938,-1923.085205078125,774.70263671875,-1924.142333984375,773.6348266601562,-1925.492919921875L773.6348266601562,-1925.492919921875M779.1328125,-1921.95654296875C779.8430786132812,-1923.128173828125,780.7384033203125,-1924.177001953125,781.783935546875,-1925.0625C783.11962890625,-1926.1683349609375,784.6607055664062,-1926.99951171875,786.318359375,-1927.5081787109375C786.4937744140625,-1925.9521484375,786.4608154296875,-1924.3795166015625,786.2206420898438,-1922.83203125C784.050048828125,-1921.66650390625,781.5232543945312,-1921.350830078125,779.1328125,-1921.94677734375L779.1328125,-1921.95654296875M787.8297729492188,-1923.9129638671875C787.9529418945312,-1925.24560546875,787.9267578125,-1926.587646484375,787.7515258789062,-1927.914306640625C788.8153076171875,-1928.1505126953125,789.89404296875,-1928.31396484375,790.97998046875,-1928.4033203125C790.36376953125,-1926.6434326171875,789.273681640625,-1925.087890625,787.8297729492188,-1923.9080810546875L787.8297729492188,-1923.9129638671875" style="fill: rgb(0, 0, 0); fill-opacity: 1;"/></g></g></svg>